<svg xmlns="http://www.w3.org/2000/svg" viewBox="0 0 65 61">
<path d="M54.7083 38.6237H14.0833C6.30532 38.6237 0 32.3184 0 24.5404C0 16.7624 6.30532 10.4571 14.0833 10.4571C14.1754 10.4571 14.2669 10.4576 14.3573 10.4597C16.9407 4.53638 22.7886 0.707031 29.2508 0.707031C35.7129 0.707031 41.5608 4.53638 44.1442 10.4597C49.0484 10.5702 53.4328 13.5442 55.3489 18.06C60.8997 18.4031 65.1738 23.0938 65.0006 28.6525C64.8275 34.2111 60.2697 38.6268 54.7083 38.6237ZM14.0833 12.6237C7.50194 12.6237 2.16667 17.959 2.16667 24.5404C2.16667 31.1218 7.50194 36.4571 14.0833 36.4571H54.7083C59.1957 36.4571 62.8333 32.8194 62.8333 28.3321C62.8333 23.8447 59.1957 20.2071 54.7083 20.2071H54.6C54.1408 20.207 53.7315 19.9175 53.5785 19.4845C52.1201 15.3482 48.1978 12.5929 43.8121 12.6237C43.7062 12.6237 43.601 12.6243 43.4957 12.6316C43.0205 12.6619 42.5803 12.3809 42.4076 11.9371C40.3243 6.47402 35.0817 2.86675 29.2349 2.87335C23.3881 2.87994 18.1536 6.49902 16.0826 11.9668C15.9098 12.4263 15.4491 12.7117 14.9607 12.6619C14.6691 12.6344 14.3763 12.6217 14.0833 12.6237Z"/>
<path d="M7.33744 31.0413C7.01043 31.0418 6.70078 30.8942 6.49536 30.6398C4.61854 28.3165 3.91376 25.2595 4.58396 22.349C5.25417 19.4385 7.22497 16.9976 9.92888 15.7291C10.4699 15.4735 11.1158 15.7048 11.3714 16.2459C11.627 16.7869 11.3956 17.4328 10.8546 17.6884C8.20597 18.9448 6.51356 21.6098 6.50273 24.5413C6.49607 26.266 7.0884 27.9395 8.17854 29.2761C8.4413 29.6005 8.49427 30.047 8.31468 30.4239C8.1351 30.8008 7.75493 31.041 7.33744 31.0413Z"/>
<path d="M18.419 32.1246C18.0708 32.1241 17.7441 31.9565 17.5405 31.674C17.337 31.3914 17.2815 31.0284 17.3913 30.698L21.7246 17.698C21.9139 17.1304 22.5275 16.8237 23.0951 17.013C23.6628 17.2023 23.9694 17.8159 23.7801 18.3835L19.4468 31.3835C19.2995 31.826 18.8854 32.1246 18.419 32.1246Z"/>
<path d="M27.0811 32.1246C26.6147 32.1246 26.2007 31.826 26.0533 31.3835L21.72 18.3835C21.5307 17.8159 21.8374 17.2023 22.405 17.013C22.9726 16.8237 23.5862 17.1304 23.7755 17.698L28.1089 30.698C28.2187 31.0284 28.1631 31.3914 27.9596 31.674C27.7561 31.9565 27.4293 32.1241 27.0811 32.1246Z"/>
<path d="M25.2723 26.7057H20.224C19.6256 26.7057 19.1406 26.2207 19.1406 25.6224C19.1406 25.0241 19.6256 24.5391 20.224 24.5391H25.2723C25.8706 24.5391 26.3556 25.0241 26.3556 25.6224C26.3556 26.2207 25.8706 26.7057 25.2723 26.7057Z"/>
<path d="M30.3333 32.1237C29.735 32.1237 29.25 31.6387 29.25 31.0404V18.0404C29.25 17.4421 29.735 16.957 30.3333 16.957C30.9316 16.957 31.4167 17.4421 31.4167 18.0404V31.0404C31.4167 31.6387 30.9316 32.1237 30.3333 32.1237Z"/>
<path d="M34.6667 25.6237H30.3333C29.735 25.6237 29.25 25.1387 29.25 24.5404V18.0404C29.25 17.4421 29.735 16.957 30.3333 16.957H34.6667C37.0599 16.957 39 18.8971 39 21.2904C39 23.6836 37.0599 25.6237 34.6667 25.6237ZM31.4167 23.457H34.6667C35.8633 23.457 36.8333 22.487 36.8333 21.2904C36.8333 20.0937 35.8633 19.1237 34.6667 19.1237H31.4167V23.457Z"/>
<path d="M43.3333 32.1237C42.735 32.1237 42.25 31.6387 42.25 31.0404V18.0404C42.25 17.4421 42.735 16.957 43.3333 16.957C43.9316 16.957 44.4167 17.4421 44.4167 18.0404V31.0404C44.4167 31.6387 43.9316 32.1237 43.3333 32.1237Z"/>
<path d="M46.5833 19.1237H40.0833C39.485 19.1237 39 18.6387 39 18.0404C39 17.4421 39.485 16.957 40.0833 16.957H46.5833C47.1816 16.957 47.6667 17.4421 47.6667 18.0404C47.6667 18.6387 47.1816 19.1237 46.5833 19.1237Z"/>
<path d="M46.5833 32.1237H40.0833C39.485 32.1237 39 31.6387 39 31.0404C39 30.4421 39.485 29.957 40.0833 29.957H46.5833C47.1816 29.957 47.6667 30.4421 47.6667 31.0404C47.6667 31.6387 47.1816 32.1237 46.5833 32.1237Z"/>
<path d="M26.0514 60.2912C25.7782 60.291 25.508 60.2346 25.2574 60.1257L18.4796 57.3158C17.9801 57.1095 17.5841 56.7114 17.3805 56.2108C17.1793 55.7167 17.1881 55.162 17.4048 54.6746L19.0189 50.7724C17.4305 49.5643 16.0131 48.1464 14.8056 46.5575L10.8685 48.1836C10.3781 48.3885 9.82581 48.3876 9.33609 48.181C8.84665 47.979 8.45714 47.5914 8.25276 47.103L5.44584 40.2934C5.02062 39.2836 5.48987 38.1198 6.49668 37.6873L10.3355 36.1051C10.6935 35.9577 11.1029 36.0124 11.4096 36.2488C11.7163 36.4851 11.8735 36.8671 11.8222 37.2509C11.7708 37.6346 11.5187 37.9618 11.1606 38.1092L7.50862 39.6132L10.1915 46.1191L14.7645 44.2306C15.2331 44.0376 15.773 44.195 16.0645 44.6098C17.3999 46.5173 19.0591 48.1763 20.9669 49.5115C21.3833 49.8026 21.5413 50.3441 21.3467 50.8134L19.4593 55.3763L25.9604 58.0714L27.8494 53.5058C28.0437 53.0358 28.5388 52.7643 29.0395 52.8531C31.3285 53.2609 33.6718 53.2577 35.9596 52.8435C36.4605 52.7542 36.9563 53.0246 37.1524 53.4942L39.0514 58.0676L45.5435 55.3757L43.655 50.8017C43.4608 50.3309 43.6206 49.7885 44.0391 49.4983C45.9474 48.1698 47.6059 46.5144 48.9379 44.6085C49.2291 44.1934 49.7696 44.0364 50.2379 44.2308L54.8096 46.1224L57.5071 39.6177L54.8993 38.5322C54.41 38.3491 54.1212 37.8427 54.2129 37.3284C54.3045 36.814 54.7504 36.4385 55.2728 36.4357C55.4191 36.4356 55.5641 36.4638 55.6997 36.5187L58.4839 37.6778C58.9793 37.8802 59.3718 38.2744 59.572 38.7707C59.7726 39.2617 59.7713 39.812 59.5683 40.302L56.7499 47.0988C56.5466 47.5958 56.1518 47.9901 55.6546 48.1929C55.1574 48.3957 54.5995 48.3899 54.1066 48.1769L50.1957 46.5581C48.9904 48.146 47.5733 49.5615 45.9841 50.7651L47.608 54.6991C47.8168 55.1804 47.8218 55.7258 47.6217 56.2109C47.4177 56.7129 47.0202 57.1117 46.5189 57.3175L39.7306 60.1321C39.239 60.338 38.6854 60.3387 38.1932 60.1341C37.701 59.9294 37.3112 59.5363 37.1106 59.0425L35.4797 55.1143C33.5048 55.3898 31.5014 55.3926 29.5256 55.1228L27.9017 59.0472C27.5939 59.7982 26.863 60.2893 26.0514 60.2912Z"/>
<path d="M32.4997 48.3749C25.7742 48.3482 19.7526 44.2018 17.3288 37.9282C17.1866 37.5658 17.2498 37.1549 17.4944 36.852C17.739 36.5491 18.1273 36.4007 18.5116 36.4634C18.8958 36.526 19.2169 36.79 19.3526 37.155C21.434 42.6068 26.6641 46.2084 32.4997 46.2084C38.3352 46.2084 43.5653 42.6068 45.6467 37.155C45.7824 36.79 46.1035 36.526 46.4877 36.4634C46.872 36.4007 47.2603 36.5491 47.5049 36.852C47.7495 37.1549 47.8127 37.5658 47.6705 37.9282C45.2467 44.2018 39.2251 48.3482 32.4997 48.3749Z"/>
<path d="M20.5831 13.7063C20.2349 13.7058 19.9081 13.5381 19.7046 13.2556C19.5011 12.9731 19.4455 12.6101 19.5553 12.2796C21.9415 5.12162 27.9136 5.03907 28.1664 5.03907C28.7647 5.0376 29.251 5.52144 29.2524 6.11975C29.2539 6.71805 28.77 7.20427 28.1717 7.20573C27.9617 7.20887 23.4845 7.34375 21.6109 12.9652C21.4635 13.4077 21.0495 13.7062 20.5831 13.7063Z"/>
</svg>
