<svg width="13" height="15" viewBox="0 0 13 15" fill="none" xmlns="http://www.w3.org/2000/svg">
<path d="M4.15625 2.09375H8.09375V1C8.09375 0.644531 8.36719 0.34375 8.75 0.34375C9.10547 0.34375 9.40625 0.644531 9.40625 1V2.09375H10.5C11.457 2.09375 12.25 2.88672 12.25 3.84375V12.5938C12.25 13.5781 11.457 14.3438 10.5 14.3438H1.75C0.765625 14.3438 0 13.5781 0 12.5938V3.84375C0 2.88672 0.765625 2.09375 1.75 2.09375H2.84375V1C2.84375 0.644531 3.11719 0.34375 3.5 0.34375C3.85547 0.34375 4.15625 0.644531 4.15625 1V2.09375ZM1.3125 7.125H3.5V5.59375H1.3125V7.125ZM1.3125 8.4375V10.1875H3.5V8.4375H1.3125ZM4.8125 8.4375V10.1875H7.4375V8.4375H4.8125ZM8.75 8.4375V10.1875H10.9375V8.4375H8.75ZM10.9375 5.59375H8.75V7.125H10.9375V5.59375ZM10.9375 11.5H8.75V13.0312H10.5C10.7188 13.0312 10.9375 12.8398 10.9375 12.5938V11.5ZM7.4375 11.5H4.8125V13.0312H7.4375V11.5ZM3.5 11.5H1.3125V12.5938C1.3125 12.8398 1.50391 13.0312 1.75 13.0312H3.5V11.5ZM7.4375 5.59375H4.8125V7.125H7.4375V5.59375Z" fill="black"/>
</svg>
