<svg xmlns="http://www.w3.org/2000/svg" viewBox="0 0 57 49">
<path d="M21.2645 0.165167C16.2384 0.869886 11.5988 3.05011 7.85407 6.47461C6.7936 7.44359 6.55058 7.87303 6.67209 8.5227C6.77151 9.07326 7.42326 9.57977 8.00872 9.57977C8.42849 9.57977 8.68256 9.41461 9.61047 8.55573C13.9186 4.55865 19.6517 2.43348 25.4622 2.67573C27.6384 2.77483 30.1349 3.2373 31.7366 3.84292L32.0459 3.96404L31.35 4.78989C28.9529 7.6418 28.1023 10.9892 28.9419 14.2816C29.218 15.3717 30.0134 17.0124 30.7093 17.9373C31.2285 18.653 32.7198 20.1506 33.239 20.5029L33.493 20.6901L33.261 22.6061C33.0401 24.511 33.0512 24.8524 33.3605 25.4249C33.6808 26.0416 34.8628 26.3058 35.4814 25.8984C35.6471 25.7993 36.5087 25.1497 37.3924 24.467L39.0052 23.2117L40.2093 23.3879C41.7116 23.6081 43.7994 23.6081 45.2244 23.3989C45.832 23.3108 46.3622 23.2337 46.4174 23.2337C46.539 23.2337 46.5279 25.3038 46.3843 26.6582C45.5116 35.236 39.6128 42.5694 31.4273 45.2452C18.1052 49.5946 4.21977 40.5764 2.76163 26.6472C2.25349 21.7912 3.53488 16.66 6.29651 12.4427C6.92616 11.4737 6.97035 11.3636 6.92616 10.9011C6.82674 10.0312 5.99826 9.51371 5.14767 9.81101C4.78314 9.94314 4.59535 10.1303 4.06512 10.9011C3.22558 12.1124 1.77849 15.0524 1.2814 16.5169C0.375581 19.2036 0 21.549 0 24.5C0 28.42 0.72907 31.6573 2.36395 35.0708C4.81628 40.169 8.67151 44.0449 13.7529 46.5225C17.3209 48.2622 20.5355 49 24.5785 49C28.6215 49 31.836 48.2622 35.4041 46.5225C40.4081 44.089 44.2192 40.2901 46.6715 35.291C48.439 31.7013 49.157 28.5411 49.157 24.3899V22.3528L50.1291 21.8683C53.4541 20.2056 55.807 17.4418 56.6134 14.2595C57.0994 12.3546 56.9779 10.0202 56.282 8.19236C55.7076 6.68382 54.5035 4.86696 53.907 4.62472C53.4541 4.43753 52.736 4.54764 52.4047 4.85595C52.0512 5.18629 51.8744 5.82494 52.0291 6.22135C52.0954 6.38652 52.3605 6.81595 52.6256 7.19034C54.5808 9.94314 54.7134 12.9712 53.0122 15.8231C52.5262 16.627 51.068 18.1135 50.1622 18.7191C47.732 20.3488 44.4622 21.1416 41.5017 20.8333C40.8169 20.7562 39.9773 20.624 39.6238 20.536C38.486 20.2387 38.3314 20.2937 36.9395 21.3728C36.5529 21.6811 36.1994 21.9124 36.1663 21.8903C36.1331 21.8573 36.1663 21.3838 36.2436 20.8443C36.3983 19.578 36.332 19.4238 35.2384 18.598C32.8413 16.8142 31.5378 14.6229 31.4052 12.1564C31.1622 7.88404 34.7302 4.05213 40.0105 2.90696C41.2477 2.64269 43.468 2.58764 44.8267 2.79685C46.2959 3.01708 48.1517 3.63371 49.2343 4.26135C49.7204 4.53663 50.2837 4.77887 50.5378 4.81191C51.7087 4.94404 52.4599 3.47955 51.6645 2.62067C51.0128 1.91595 48.3285 0.770785 46.2849 0.308313C45.2686 0.0880881 44.8378 0.0550544 42.8052 0.0550544C40.9826 0.0550544 40.2866 0.0990994 39.5465 0.253257C38.2541 0.528538 36.5308 1.11213 35.4924 1.62966L34.6308 2.07011L33.6919 1.68472C32.3994 1.16719 30.3558 0.583594 28.8314 0.308313C27.1744 0.0110095 22.9436 -0.0660692 21.2645 0.165167Z"/>
<path d="M20.371 8.30336C18.25 8.78785 16.118 10.2634 14.8035 12.1573C14.218 13.0162 13.3896 14.8661 13.1576 15.8461C12.4727 18.72 12.5942 22.5079 13.489 25.9874C14.3948 29.489 15.6541 32.2638 17.5762 34.9505C19.3547 37.4391 21.7739 39.2119 24.4913 40.0488C25.3529 40.313 25.6512 40.3461 27.1204 40.3461C28.4018 40.3571 28.943 40.313 29.4954 40.1589C31.1082 39.7074 32.4227 38.8155 32.9529 37.8245C33.1518 37.4721 33.196 37.1968 33.196 36.393C33.196 35.5121 33.1628 35.3249 32.8425 34.6643C32.3454 33.6072 30.589 31.0746 29.871 30.3479C29.5396 30.0175 28.9762 29.5991 28.6337 29.4339C28.0483 29.1476 27.9047 29.1256 26.6343 29.1146H25.2535L24.7233 28.531C23.7733 27.4959 23.0994 26.1195 22.5692 24.1265C22.0611 22.2326 22.2047 19.8541 22.8343 19.6449C23.5413 19.4027 24.4361 18.9072 24.8006 18.5548C25.3419 18.0153 25.8058 16.9912 25.9605 16.0332C26.0268 15.6148 26.093 14.4256 26.093 13.3906C26.1151 11.871 26.071 11.3755 25.9163 10.847C25.5739 9.69077 24.9884 8.97504 23.9721 8.50156C23.4529 8.25931 23.1878 8.20426 22.2047 8.18224C21.5087 8.17122 20.7686 8.21527 20.371 8.30336ZM22.8122 10.9461C23.3093 11.1553 23.4198 11.5847 23.4198 13.3795C23.4198 14.9431 23.2762 16.1103 23.0332 16.4847C22.9448 16.6058 22.6355 16.793 22.3483 16.9031C20.8349 17.4207 20.3268 17.9382 19.8518 19.4247C19.6419 20.0964 19.6087 20.4488 19.6087 21.8582C19.6087 23.3007 19.6529 23.653 19.918 24.6991C20.3157 26.2186 20.6582 27.1326 21.2657 28.2667C22.1826 29.9955 23.1657 31.0526 24.3919 31.6362C25.0326 31.9335 25.1541 31.9555 25.7727 31.8784C27.032 31.7243 27.3303 31.7463 27.739 32.0546C28.4018 32.5611 30.6 35.8975 30.6 36.393C30.6 36.8555 29.3849 37.4501 28.0041 37.6593C26.2146 37.9456 24.0605 37.2629 22.1274 35.8314C17.7087 32.5391 14.4279 23.0584 15.643 17.0793C16.2837 13.9521 18.3163 11.5957 20.9454 10.9681C21.796 10.7589 22.3483 10.7589 22.8122 10.9461Z"/>
<path d="M36.9955 8.3122C36.6972 8.46636 36.3438 9.07198 36.3438 9.40232C36.3438 9.50142 36.41 9.75468 36.4984 9.96389C36.8077 10.6906 36.6751 10.6796 43.2478 10.6796C49.8315 10.6796 49.6327 10.7016 49.9862 9.95288C50.1961 9.51243 50.1961 9.31423 49.9862 8.87378C49.6327 8.12501 49.8315 8.14704 43.2257 8.14704C38.299 8.15805 37.2385 8.18007 36.9955 8.3122Z"/>
<path d="M36.9955 12.3864C36.6972 12.5406 36.3438 13.1462 36.3438 13.4765C36.3438 13.5756 36.41 13.8289 36.4984 14.0381C36.8077 14.7648 36.6751 14.7538 43.2478 14.7538C49.8205 14.7538 49.6327 14.7759 49.9862 14.0271C50.2403 13.4765 50.1298 12.981 49.6438 12.5626L49.2571 12.2213H43.2699C38.31 12.2323 37.2385 12.2543 36.9955 12.3864Z"/>
</svg>
