<svg xmlns="http://www.w3.org/2000/svg" viewBox="0 0 51 42">
<path d="M20.8903 41.8038C15.3508 41.816 10.0325 39.6309 6.10185 35.7275C-2.03384 27.592 -2.03397 14.4016 6.10156 6.26591C14.2371 -1.86977 27.4275 -1.8699 35.5632 6.26562C37.6231 8.31803 39.2266 10.7822 40.2685 13.497C40.4339 13.9267 40.2197 14.4091 39.7901 14.5745C39.3604 14.7399 38.878 14.5257 38.7126 14.096C37.7544 11.5987 36.2796 9.33196 34.3848 7.44404C27.4073 0.469978 16.2755 -0.0682212 8.6577 6.20019C1.03994 12.4686 -0.575101 23.4958 4.92513 31.6854C10.4254 39.8751 21.2439 42.5518 29.9283 37.8715C30.3335 37.6531 30.8391 37.8045 31.0575 38.2096C31.276 38.6148 31.1246 39.1203 30.7194 39.3388C27.6979 40.9623 24.3203 41.8093 20.8903 41.8038Z"/>
<path d="M20.8347 28.4928C17.2587 28.49 14.1826 25.9617 13.4875 22.454C12.7923 18.9462 14.6717 15.4359 17.9763 14.0695C21.281 12.7032 25.0906 13.8614 27.0756 16.8358C29.0606 19.8102 28.6681 23.7726 26.1383 26.2999C24.7324 27.7072 22.8238 28.4963 20.8347 28.4928ZM20.8347 15.1664C18.0532 15.1683 15.6605 17.1348 15.1196 19.8631C14.5788 22.5915 16.0405 25.322 18.6108 26.3849C21.1812 27.4477 24.1444 26.547 25.6885 24.2335C27.2325 21.92 26.9274 18.8379 24.9597 16.8721C23.8663 15.7775 22.3818 15.1636 20.8347 15.1664Z"/>
<path d="M20.8333 25.1641C18.8449 25.1646 17.133 23.7603 16.7447 21.8102C16.3564 19.8601 17.3998 17.9072 19.2368 17.146C21.0737 16.3848 23.1926 17.0273 24.2974 18.6806C25.4022 20.3338 25.1853 22.5373 23.7793 23.9433C22.9999 24.7275 21.939 25.1672 20.8333 25.1641ZM20.8333 18.4974C19.8223 18.4975 18.9109 19.1066 18.524 20.0407C18.1371 20.9748 18.3509 22.05 19.0657 22.765C20.0548 23.7097 21.6119 23.7097 22.6009 22.765C23.3157 22.05 23.5296 20.9748 23.1427 20.0407C22.7558 19.1066 21.8444 18.4975 20.8333 18.4974Z"/>
<path d="M30.2883 17.8776C29.7989 17.8768 29.3551 17.5897 29.1539 17.1435C28.2372 15.1744 26.6546 13.5923 24.6852 12.6762C24.073 12.399 23.7911 11.6862 24.0481 11.0653L26.2814 5.67584C26.4119 5.36291 26.6626 5.11546 26.9772 4.98901C27.2885 4.8627 27.638 4.86872 27.9448 5.00568C32.0413 6.83103 35.283 10.156 37.0041 14.2973C37.0885 14.5021 37.0879 14.732 37.0024 14.9363C36.9168 15.1406 36.7534 15.3024 36.5483 15.3858L36.14 15.5525C35.7897 15.6954 35.3871 15.5844 35.1595 15.2821C34.9319 14.9799 34.9366 14.5622 35.1707 14.2651C33.6097 10.9571 30.9564 8.28818 27.6577 6.70768L25.7397 11.3353C27.7857 12.3801 29.4498 14.044 30.4947 16.09L33.1802 14.9775C33.6054 14.8013 34.0929 15.0032 34.2691 15.4284C34.4453 15.8536 34.2434 16.3411 33.8182 16.5173L30.7648 17.7823C30.6138 17.8451 30.4519 17.8774 30.2883 17.8776Z"/>
<path d="M14.2241 37.0967C14.0508 37.0964 13.8795 37.06 13.7211 36.9897C9.7657 35.2285 6.60252 32.065 4.84173 28.1094C4.70478 27.8029 4.69861 27.4539 4.82464 27.1428C4.9506 26.8279 5.19782 26.5768 5.51073 26.4461L10.9006 24.2128C11.522 23.9543 12.2363 24.2375 12.5118 24.8516C13.4285 26.8207 15.0111 28.4028 16.9805 29.3189C17.5927 29.5963 17.8746 30.3092 17.6176 30.9303L15.3843 36.3193C15.1893 36.7884 14.7321 37.0949 14.2241 37.0967ZM6.54339 27.8226C8.1068 31.09 10.741 33.7242 14.0084 35.2876L15.9257 30.6603C13.8795 29.6156 12.2154 27.9515 11.1707 25.9053L6.54339 27.8226Z"/>
<path d="M38.0911 41.8267C33.7536 41.8267 29.4355 39.8971 27.1968 36.6053C25.3819 33.8985 25.3767 30.3648 27.1838 27.6527C27.8326 26.6681 28.5368 25.7212 29.2931 24.8166C30.0933 23.8718 30.8254 22.8714 31.4839 21.823C32.3048 20.5593 32.7713 19.0984 32.8348 17.5928C32.8468 16.8063 32.7465 16.022 32.5369 15.2637C32.5239 15.2231 32.5036 15.1457 32.4824 15.0567C32.3194 14.3966 32.5724 13.7035 33.1224 13.3038C33.6724 12.904 34.4098 12.8773 34.9873 13.2362C36.4577 14.1637 37.8775 15.1694 39.2404 16.2488C39.2591 16.2639 39.3129 16.3091 39.3299 16.3253C40.0216 16.9768 42.166 19.3128 40.7256 22.0147C40.1201 23.1413 39.7173 24.7628 40.16 25.5518C40.2381 25.6914 40.4767 26.1154 41.4946 26.1715C42.2449 26.177 42.9471 25.8031 43.3613 25.1775C43.8939 24.5152 44.1033 23.6499 43.9325 22.8174C43.7935 22.436 43.95 22.0099 44.3028 21.8091C44.6561 21.6048 45.1025 21.6628 45.3917 21.9507C49.9584 27.1152 51.1485 31.8055 48.9293 35.8912C47.5925 38.2194 45.4838 40.0072 42.9682 40.9449C41.4104 41.5357 39.7572 41.8346 38.0911 41.8267ZM34.1003 14.6469L34.1385 14.8047C34.3932 15.7211 34.5154 16.6691 34.5014 17.6201C34.431 19.4147 33.8845 21.1583 32.9181 22.6722C32.2192 23.7889 31.4419 24.8547 30.5923 25.8615C29.8757 26.7163 29.2084 27.6113 28.5936 28.5422C27.1473 30.6946 27.1396 33.5062 28.574 35.6666C31.2612 39.6172 37.449 41.2879 42.3689 39.3897C44.5162 38.5961 46.3186 37.0771 47.4645 35.0952C49.0945 32.0952 48.4207 28.5942 45.4658 24.6688C45.2955 25.2088 45.0364 25.7167 44.6991 26.1715C43.9557 27.2523 42.7127 27.8796 41.4016 27.8357C40.3041 27.8686 39.274 27.3075 38.7063 26.3677C37.6084 24.4112 39.0839 21.5483 39.2556 21.2281C40.1389 19.5712 38.6607 17.9851 38.1871 17.5387C36.8769 16.5033 35.5127 15.538 34.1003 14.6469Z"/>
<path d="M37.5601 41.7657C36.0061 41.8123 34.4749 41.3834 33.1713 40.5361C32.7624 40.2541 32.406 39.9028 32.1182 39.4981C31.5021 38.5798 31.2401 37.4691 31.3809 36.3723C31.4704 35.3774 31.8033 33.0576 32.9597 33.0251C33.0021 33.0237 33.0445 33.0257 33.0866 33.0312C33.512 33.082 33.8362 33.4363 33.8492 33.8645C33.9447 34.0576 34.1007 34.2141 34.2935 34.3101C34.576 34.4845 34.9197 34.5293 35.2375 34.4334C35.3585 34.3994 35.4699 34.3379 35.563 34.2535C35.3804 33.9064 35.114 33.6103 34.788 33.3921C34.2888 33.0207 33.9591 32.4648 33.8724 31.8487C33.7857 31.2325 33.9493 30.6073 34.3266 30.1125C34.3404 30.0905 34.3673 30.051 34.3828 30.0303C35.1549 28.9905 36.0132 28.0176 36.9487 27.1219L36.9552 27.1159C37.2577 26.8285 37.726 26.8092 38.0512 27.0705C38.3764 27.3319 38.4582 27.7934 38.2426 28.1506C38.2465 28.3056 38.2596 28.4602 38.2817 28.6136C38.2923 28.6934 38.3004 28.7609 38.3045 28.8105C38.3336 29.1029 38.4117 29.3884 38.5356 29.6549C38.9409 30.522 40.2405 31.2975 41.4979 32.0474C43.1678 33.0435 44.8939 34.0734 45.295 35.7067C45.4888 36.632 45.2937 37.5962 44.7555 38.3734C43.9143 39.6256 42.6964 40.5777 41.2781 41.0919C40.0896 41.5392 38.83 41.7675 37.5601 41.7657ZM34.1299 39.1729C35.8812 40.4046 38.7483 40.2896 40.6737 39.5396C41.751 39.1537 42.6812 38.4415 43.3349 37.5022C43.6338 37.1023 43.7574 36.5982 43.6774 36.1054C43.4414 35.1479 42.0198 34.2995 40.6441 33.4792C39.1711 32.6003 37.6477 31.6913 37.0251 30.3603C36.9267 30.149 36.8459 29.9301 36.7834 29.7056C36.4139 30.1288 36.0591 30.5688 35.7189 31.0256C35.4561 31.463 35.4606 31.8211 35.7662 32.0433C36.0347 32.2374 37.3726 33.2749 37.2001 34.5209C37.0693 35.2443 36.525 35.823 35.8109 35.9979C34.9403 36.2972 33.9783 36.1522 33.2344 35.6097L33.2051 35.5889C33.1213 35.9889 33.0551 36.3698 33.0407 36.5232C32.9403 37.2272 33.0971 37.9438 33.4824 38.5414C33.6598 38.7878 33.8794 39.0015 34.1299 39.1729Z"/>
<path d="M5.16516 16.4963C4.89106 16.4956 4.63473 16.3605 4.47929 16.1348C4.32385 15.909 4.28911 15.6214 4.38633 15.3651C5.94338 11.5695 8.62484 8.34139 12.0704 6.1145C12.4651 5.87827 12.9766 6.00654 13.2131 6.40109C13.4496 6.79565 13.3217 7.30721 12.9273 7.544C9.81344 9.59166 7.38181 12.5224 5.94399 15.9607C5.82026 16.2832 5.5106 16.4961 5.16516 16.4963Z"/>
<path d="M14.9974 5.9987C15.4576 5.9987 15.8307 5.6256 15.8307 5.16536C15.8307 4.70513 15.4576 4.33203 14.9974 4.33203C14.5372 4.33203 14.1641 4.70513 14.1641 5.16536C14.1641 5.6256 14.5372 5.9987 14.9974 5.9987Z"/>
</svg>
