<svg  xmlns="http://www.w3.org/2000/svg"  viewBox="0 0 14 15" >
<path d="M13.5008 0.999986C13.2976 0.796892 13.0221 0.6828 12.7349 0.6828C12.4476 0.6828 12.1721 0.796892 11.9689 0.999986L7.00078 5.96815L2.03261 0.999986C1.82946 0.796892 1.55396 0.6828 1.2667 0.6828C0.979434 0.6828 0.703934 0.796892 0.500779 0.999986C0.297686 1.20314 0.183594 1.47864 0.183594 1.7659C0.183594 2.05316 0.297686 2.32866 0.500779 2.53182L5.46895 7.49999L0.500779 12.4682C0.297686 12.6713 0.183594 12.9468 0.183594 13.2341C0.183594 13.5213 0.297686 13.7968 0.500779 14C0.703934 14.2031 0.979434 14.3172 1.2667 14.3172C1.55396 14.3172 1.82946 14.2031 2.03261 14L7.00078 9.03182L11.9689 14C12.1721 14.2031 12.4476 14.3172 12.7349 14.3172C13.0221 14.3172 13.2976 14.2031 13.5008 14C13.7039 13.7968 13.818 13.5213 13.818 13.2341C13.818 12.9468 13.7039 12.6713 13.5008 12.4682L8.53261 7.49999L13.5008 2.53182C13.7039 2.32866 13.818 2.05316 13.818 1.7659C13.818 1.47864 13.7039 1.20314 13.5008 0.999986Z" />
</svg>
