<svg xmlns="http://www.w3.org/2000/svg" viewBox="0 0 40 40">
<path d="M38.0026 33.9987H2.0026C1.63441 33.9987 1.33594 33.7002 1.33594 33.332V9.33203C1.33715 8.22796 2.23187 7.33324 3.33594 7.33203H8.20927C8.57746 7.33203 8.87594 7.63051 8.87594 7.9987C8.87594 8.36689 8.57746 8.66536 8.20927 8.66536H3.33594C2.96788 8.6657 2.6696 8.96398 2.66927 9.33203V32.6654H37.3359V9.33203C37.3356 8.96398 37.0373 8.6657 36.6693 8.66536H30.7559C30.3877 8.66536 30.0893 8.36689 30.0893 7.9987C30.0893 7.63051 30.3877 7.33203 30.7559 7.33203H36.6693C37.7733 7.33324 38.6681 8.22796 38.6693 9.33203V33.332C38.6693 33.7002 38.3708 33.9987 38.0026 33.9987Z"/>
<path d="M35.3333 34H4.66667C4.29848 34 4 33.7015 4 33.3333V11.3333C4.00084 10.5973 4.5973 10.0008 5.33333 10H8.30667C8.67486 10 8.97333 10.2985 8.97333 10.6667C8.97333 11.0349 8.67486 11.3333 8.30667 11.3333H5.33333V32.6667H34.6667V11.3333H31.9333C31.5651 11.3333 31.2667 11.0349 31.2667 10.6667C31.2667 10.2985 31.5651 10 31.9333 10H34.6667C35.4027 10.0008 35.9992 10.5973 36 11.3333V33.3333C36 33.7015 35.7015 34 35.3333 34Z"/>
<path d="M36.6667 40.0013H3.33333C1.49328 39.9991 0.00216743 38.508 0 36.668V34.0013C0.00084498 33.2653 0.597304 32.6688 1.33333 32.668H38.6667C39.4027 32.6688 39.9992 33.2653 40 34.0013V36.668C39.9978 38.508 38.5067 39.9991 36.6667 40.0013ZM1.33333 34.0013V36.668C1.33455 37.772 2.22927 38.6668 3.33333 38.668H36.6667C37.7707 38.6668 38.6655 37.772 38.6667 36.668V34.0013H1.33333Z"/>
<path d="M24.5066 36.668H15.4883C14.7301 36.6705 14.0363 36.2418 13.6993 35.5625L12.7345 33.6328C12.6311 33.4262 12.6421 33.1807 12.7636 32.9841C12.8851 32.7876 13.0997 32.6679 13.3308 32.668H26.6641C26.8952 32.6679 27.1098 32.7876 27.2313 32.9841C27.3528 33.1807 27.3638 33.4262 27.2605 33.6328L26.2957 35.5625C25.9587 36.2418 25.2649 36.6705 24.5066 36.668ZM14.4096 34.0013L14.892 34.9662C15.0045 35.1925 15.2356 35.3353 15.4883 35.3346H24.5066C24.7593 35.3353 24.9905 35.1925 25.1029 34.9662L25.5853 34.0013H14.4096Z"/>
<path d="M8.66667 36.6654H0.666667C0.298477 36.6654 0 36.3669 0 35.9987C0 35.6305 0.298477 35.332 0.666667 35.332H8.66667C9.03486 35.332 9.33333 35.6305 9.33333 35.9987C9.33333 36.3669 9.03486 36.6654 8.66667 36.6654Z"/>
<path d="M11.9974 36.6654H11.3307C10.9625 36.6654 10.6641 36.3669 10.6641 35.9987C10.6641 35.6305 10.9625 35.332 11.3307 35.332H11.9974C12.3656 35.332 12.6641 35.6305 12.6641 35.9987C12.6641 36.3669 12.3656 36.6654 11.9974 36.6654Z"/>
<path d="M39.3307 36.6654H31.3307C30.9625 36.6654 30.6641 36.3669 30.6641 35.9987C30.6641 35.6305 30.9625 35.332 31.3307 35.332H39.3307C39.6989 35.332 39.9974 35.6305 39.9974 35.9987C39.9974 36.3669 39.6989 36.6654 39.3307 36.6654Z"/>
<path d="M28.6693 36.6654H28.0026C27.6344 36.6654 27.3359 36.3669 27.3359 35.9987C27.3359 35.6305 27.6344 35.332 28.0026 35.332H28.6693C29.0375 35.332 29.3359 35.6305 29.3359 35.9987C29.3359 36.3669 29.0375 36.6654 28.6693 36.6654Z"/>
<path d="M28.4374 14.6665H28.2707C27.9025 14.6665 27.604 14.3681 27.604 13.9999C27.604 13.6317 27.9025 13.3332 28.2707 13.3332H28.4374C29.9477 13.3438 31.1963 12.1585 31.264 10.6496C31.2652 10.6122 31.2693 10.575 31.2764 10.5383C31.2645 9.75461 30.915 9.01419 30.3174 8.50701C29.798 8.04991 29.1293 7.79856 28.4374 7.80034C28.146 7.80167 27.8825 7.62752 27.7694 7.35894C27.237 5.91454 25.8571 4.95815 24.3177 4.96654C24.2838 4.96534 24.2499 4.9662 24.2161 4.96914C23.9162 5.00213 23.6317 4.82927 23.5228 4.54794C22.7385 2.60309 20.8505 1.33046 18.7534 1.3331C16.6564 1.33574 14.7716 2.61312 13.9922 4.55994C13.8829 4.84201 13.5975 5.01527 13.2968 4.98214C13.1974 4.97163 13.0974 4.96642 12.9974 4.96654C11.0439 4.94474 9.32999 6.26425 8.85149 8.15828C8.76491 8.48277 8.72204 8.81737 8.72403 9.15321C8.723 9.5952 8.79448 10.0344 8.93563 10.4532C9.49979 12.0805 10.9868 13.2091 12.7058 13.3149C13.0731 13.3379 13.3523 13.6542 13.3295 14.0215C13.3208 14.1989 13.2409 14.3653 13.1077 14.4828C12.9746 14.6003 12.7996 14.659 12.6225 14.6456C10.3562 14.5225 8.39429 13.0293 7.67196 10.8777C7.48471 10.3221 7.3897 9.73953 7.39069 9.15321C7.38839 8.70494 7.44553 8.25833 7.56063 7.82508C8.18329 5.36096 10.3998 3.63439 12.9414 3.63368C14.0278 1.40901 16.2877 -0.0014169 18.7634 1.06816e-06C21.2392 0.00141904 23.4975 1.41444 24.5814 3.64034C26.4209 3.73156 28.0616 4.82616 28.8522 6.48968C29.7185 6.57283 30.5368 6.92622 31.1914 7.49988C32.0883 8.26615 32.6045 9.38686 32.604 10.5665C32.6043 10.6189 32.6017 10.6711 32.5962 10.7231C32.4841 12.9367 30.6537 14.6723 28.4374 14.6665Z"/>
<path d="M22.3933 14.6654H16.6667C16.2985 14.6654 16 14.3669 16 13.9987C16 13.6305 16.2985 13.332 16.6667 13.332H22.3933C22.7615 13.332 23.06 13.6305 23.06 13.9987C23.06 14.3669 22.7615 14.6654 22.3933 14.6654Z"/>
<path d="M14.6678 30.0013C14.2834 30.0014 13.9176 29.8356 13.6645 29.5462L9.69577 25.5784C9.32736 25.1846 9.23231 24.6077 9.45491 24.1166C9.66853 23.638 10.145 23.3311 10.6691 23.3346H12.0011V12.0013C12.002 11.2653 12.5984 10.6688 13.3344 10.668H16.0011C16.7371 10.6688 17.3336 11.2653 17.3344 12.0013V23.3346H18.6664C19.1897 23.3345 19.6646 23.6403 19.8809 24.1168C20.0972 24.5932 20.0149 25.1521 19.6704 25.5459C19.6606 25.557 19.6504 25.568 19.6398 25.5784L15.6411 29.5784C15.3912 29.8508 15.0375 30.0045 14.6678 30.0013ZM10.6691 24.668L14.6372 28.6358L18.6684 24.664L16.6678 24.668C16.2996 24.668 16.0011 24.3695 16.0011 24.0013V12.0013H13.3344V24.0013C13.3344 24.3695 13.036 24.668 12.6678 24.668H10.6691Z"/>
<path d="M26.6658 30.0014H23.9991C23.2631 30.0005 22.6666 29.404 22.6658 28.668V17.3347H21.3338C20.8106 17.3349 20.3356 17.029 20.1193 16.5525C19.903 16.0761 19.9853 15.5172 20.3299 15.1234L24.3591 11.0909C24.6091 10.8185 24.9628 10.6648 25.3325 10.668C25.7169 10.6679 26.0826 10.8338 26.3357 11.1231L30.3045 15.0909C30.3149 15.1013 30.3253 15.1124 30.3351 15.1234C30.6796 15.5172 30.7619 16.0761 30.5456 16.5525C30.3293 17.029 29.8544 17.3349 29.3311 17.3347H27.9991V28.668C27.9983 29.404 27.4018 30.0005 26.6658 30.0014ZM23.3325 16.0014C23.7006 16.0014 23.9991 16.2998 23.9991 16.668V28.668H26.6658V16.668C26.6658 16.2998 26.9643 16.0014 27.3325 16.0014H29.3292L25.3631 12.0336L21.3031 16.0336L23.3325 16.0014Z"/>
</svg>
