<svg xmlns="http://www.w3.org/2000/svg" viewBox="0 0 40 40">
<path d="M26.6667 23.3333H14C13.6318 23.3333 13.3333 23.0349 13.3333 22.6667C13.3333 22.2985 13.6318 22 14 22H26.6667C28.1388 21.9985 29.3318 20.8055 29.3333 19.3333V3.33333C29.3321 2.22927 28.4374 1.33455 27.3333 1.33333H3.33333C2.22927 1.33455 1.33455 2.22927 1.33333 3.33333V20C1.33455 21.1041 2.22927 21.9988 3.33333 22H10C10.3682 22 10.6667 22.2985 10.6667 22.6667C10.6667 23.0349 10.3682 23.3333 10 23.3333H3.33333C1.49328 23.3312 0.00216743 21.8401 0 20V3.33333C0.00216743 1.49328 1.49328 0.00216743 3.33333 0H27.3333C29.1734 0.00216743 30.6645 1.49328 30.6667 3.33333V19.3333C30.6642 21.5415 28.8748 23.3309 26.6667 23.3333Z"/>
<path d="M10 18.0013H0.666667C0.298477 18.0013 0 17.7028 0 17.3346C0 16.9664 0.298477 16.668 0.666667 16.668H10C10.3682 16.668 10.6667 16.9664 10.6667 17.3346C10.6667 17.7028 10.3682 18.0013 10 18.0013Z"/>
<path d="M39.3359 28.6654H10.0026C9.63441 28.6654 9.33594 28.3669 9.33594 27.9987C9.33594 27.6305 9.63441 27.332 10.0026 27.332H39.3359C39.7041 27.332 40.0026 27.6305 40.0026 27.9987C40.0026 28.3669 39.7041 28.6654 39.3359 28.6654Z"/>
<path d="M27.9974 37.3346H21.3307C20.9625 37.3346 20.6641 37.0362 20.6641 36.668V33.3346C20.6641 32.9664 20.9625 32.668 21.3307 32.668H27.9974C28.3656 32.668 28.6641 32.9664 28.6641 33.3346V36.668C28.6641 37.0362 28.3656 37.3346 27.9974 37.3346ZM21.9974 36.0013H27.3307V34.0013H21.9974V36.0013Z"/>
<path d="M30.6693 40H18.6693C17.9332 39.9992 17.3368 39.4027 17.3359 38.6667C17.3375 37.1945 18.5305 36.0015 20.0026 36H29.3359C30.8081 36.0015 32.0011 37.1945 32.0026 38.6667C32.0018 39.4027 31.4053 39.9992 30.6693 40ZM20.0026 37.3333C19.2666 37.3342 18.6701 37.9306 18.6693 38.6667H30.6693C30.6684 37.9306 30.072 37.3342 29.3359 37.3333H20.0026Z"/>
<path d="M36.0026 33.9996H12.6693C10.8292 33.9975 9.3381 32.5063 9.33594 30.6663V13.9996C9.3381 12.1596 10.8292 10.6685 12.6693 10.6663H24.3932L22.8646 9.13762C22.612 8.87603 22.6156 8.46023 22.8727 8.20307C23.1299 7.94592 23.5457 7.94231 23.8073 8.19495L26.4739 10.8616C26.6645 11.0523 26.7216 11.339 26.6184 11.5881C26.5152 11.8371 26.2722 11.9996 26.0026 11.9996H12.6693C11.5652 12.0008 10.6705 12.8956 10.6693 13.9996V30.6663C10.6705 31.7704 11.5652 32.6651 12.6693 32.6663H36.0026C37.4747 32.6647 38.6677 31.4717 38.6693 29.9996V13.9996C38.6681 12.8956 37.7733 12.0008 36.6693 11.9996H30.0026C29.6344 11.9996 29.3359 11.7011 29.3359 11.333C29.3359 10.9648 29.6344 10.6663 30.0026 10.6663H36.6693C38.5093 10.6685 40.0004 12.1596 40.0026 13.9996V29.9996C40.0002 32.2078 38.2107 33.9972 36.0026 33.9996Z"/>
<path d="M23.3306 14.6676C23.061 14.6675 22.818 14.5051 22.7148 14.256C22.6117 14.0069 22.6687 13.7203 22.8593 13.5296L25.5259 10.8629C25.7875 10.6103 26.2033 10.6139 26.4605 10.871C26.7176 11.1282 26.7213 11.544 26.4686 11.8056L23.8019 14.4723C23.6771 14.5975 23.5075 14.6678 23.3306 14.6676Z"/>
<path d="M14.0025 23.3317C13.7329 23.3316 13.4899 23.1692 13.3867 22.9201C13.2835 22.671 13.3405 22.3843 13.5311 22.1937L16.1978 19.527C16.4594 19.2743 16.8752 19.278 17.1324 19.5351C17.3895 19.7923 17.3931 20.2081 17.1405 20.4697L14.4738 23.1363C14.349 23.2616 14.1793 23.3319 14.0025 23.3317Z"/>
<path d="M16.6689 25.9996C16.492 25.9998 16.3224 25.9295 16.1976 25.8043L13.5309 23.1376C13.2782 22.876 13.2819 22.4602 13.539 22.2031C13.7962 21.9459 14.212 21.9423 14.4736 22.195L17.1402 24.8616C17.3308 25.0523 17.3878 25.339 17.2847 25.5881C17.1815 25.8371 16.9385 25.9996 16.6689 25.9996Z"/>
<path d="M25.3359 31.3333H24.0026C23.6344 31.3333 23.3359 31.0349 23.3359 30.6667C23.3359 30.2985 23.6344 30 24.0026 30H25.3359C25.7041 30 26.0026 30.2985 26.0026 30.6667C26.0026 31.0349 25.7041 31.3333 25.3359 31.3333Z"/>
<path d="M4.66406 4.0013H3.33073C2.96254 4.0013 2.66406 3.70283 2.66406 3.33464C2.66406 2.96645 2.96254 2.66797 3.33073 2.66797H4.66406C5.03225 2.66797 5.33073 2.96645 5.33073 3.33464C5.33073 3.70283 5.03225 4.0013 4.66406 4.0013Z"/>
<path d="M15.3307 4.0013H7.33073C6.96254 4.0013 6.66406 3.70283 6.66406 3.33464C6.66406 2.96645 6.96254 2.66797 7.33073 2.66797H15.3307C15.6989 2.66797 15.9974 2.96645 15.9974 3.33464C15.9974 3.70283 15.6989 4.0013 15.3307 4.0013Z"/>
</svg>
