<svg xmlns="http://www.w3.org/2000/svg" viewBox="0 0 40 40">
<path d="M20.8249 22.6583C19.3305 22.6513 17.8459 22.4172 16.4219 21.9639C14.1466 21.2028 12.4567 19.2766 11.998 16.9217C11.4961 14.504 12.4108 11.9477 14.5071 9.90833C14.7321 9.68927 14.9658 9.47942 15.2083 9.2788C17.3547 7.48183 20.2485 6.85734 22.945 7.6092C25.5555 8.44241 27.3593 10.8281 27.4495 13.5669C27.5473 15.1434 27.0334 16.6969 26.0149 17.9041C25.2294 18.8936 23.9566 19.361 22.7174 19.1151C22.2106 19.0099 21.7684 18.703 21.4927 18.2649C21.2452 17.8394 21.1818 17.3315 21.3169 16.8583C21.8999 14.6545 22.4927 11.3055 22.4985 11.2716C22.5399 11.037 22.7034 10.8423 22.9272 10.7609C23.1511 10.6794 23.4014 10.7236 23.5839 10.8768C23.7664 11.0299 23.8533 11.2688 23.8119 11.5034C23.7871 11.6427 23.2035 14.9415 22.6061 17.1991C22.5635 17.3242 22.5742 17.4613 22.6357 17.5783C22.7279 17.7058 22.867 17.7915 23.0224 17.8165C23.781 17.9432 24.5473 17.6388 25.0123 17.0262C25.8033 16.08 26.1996 14.8656 26.119 13.6349C26.0538 11.4549 24.6242 9.55165 22.5487 8.8816C20.2832 8.25847 17.8561 8.79081 16.0593 10.3049C15.8451 10.4827 15.6368 10.6689 15.4369 10.8635C14.4005 11.8717 12.7455 13.9635 13.3032 16.6502C13.6779 18.5272 15.0184 20.0654 16.8266 20.6932C19.9533 21.6906 24.4461 21.8107 26.8133 18.8673C27.0458 18.5872 27.4601 18.5455 27.7439 18.7736C28.0276 19.0017 28.0759 19.4153 27.8523 19.7026C26.1019 21.8795 23.4381 22.6583 20.8249 22.6583Z"/>
<path d="M18.5436 19.204C17.8389 19.2161 17.1516 18.985 16.5973 18.5497C15.3177 17.5256 15.2825 15.7466 15.6412 14.5351C15.762 14.1316 15.9243 13.7417 16.1253 13.3716C16.6255 12.3623 17.4254 11.5323 18.4154 10.995C19.6483 10.3552 21.1546 10.5978 22.1243 11.5923C22.6054 12.1195 22.9678 12.7438 23.187 13.4231C23.3031 13.7677 23.1215 14.1419 22.7788 14.2639C22.4362 14.3859 22.059 14.2108 21.9311 13.8703C21.773 13.3685 21.5103 12.906 21.1603 12.5132C20.595 11.935 19.714 11.8035 19.0044 12.1913C18.262 12.61 17.6653 13.2457 17.2944 14.0132C17.1386 14.3007 17.0127 14.6036 16.9188 14.9169C16.6597 15.7932 16.7166 16.9369 17.4315 17.5093C18.213 18.1369 19.5315 17.8716 20.2733 17.2317C20.8261 16.734 21.3011 16.1561 21.6824 15.5175C21.8059 15.3105 22.0314 15.1864 22.2723 15.1927C22.5132 15.199 22.7319 15.3347 22.8444 15.5478C22.9569 15.7609 22.9457 16.018 22.8151 16.2205C22.3635 16.9731 21.8012 17.6534 21.1471 18.2387C20.4181 18.8538 19.4973 19.1952 18.5436 19.204Z"/>
<path d="M38 39.9978H2C0.895933 39.9966 0.00121247 39.1019 0 37.9978V13.3312C1.048e-05 13.0726 0.149478 12.8374 0.383522 12.7276C0.617566 12.6178 0.893988 12.6532 1.0928 12.8185L17.4509 26.4135C18.931 27.6359 21.0705 27.6355 22.5501 26.4126L38.9067 12.8185C39.1055 12.6529 39.3821 12.6173 39.6164 12.7271C39.8506 12.837 40.0002 13.0724 40 13.3312V37.9978C39.9988 39.1019 39.1041 39.9966 38 39.9978ZM1.33333 14.752V37.9978C1.33381 38.3658 1.63201 38.664 2 38.6645H38C38.3681 38.6642 38.6663 38.3659 38.6667 37.9978V14.752L23.4014 27.4387C21.4276 29.0698 18.5738 29.0703 16.5996 27.4397L1.33333 14.752Z"/>
<path d="M0.667319 14.0007C0.376939 14.001 0.119789 13.8132 0.0315632 13.5366C-0.0566629 13.2599 0.0443312 12.958 0.281253 12.7901L6.28125 8.53676C6.58165 8.32856 6.99367 8.40105 7.20497 8.69927C7.41628 8.99749 7.34807 9.41024 7.05205 9.62463L1.05205 13.878C0.939703 13.9579 0.80521 14.0008 0.667319 14.0007Z"/>
<path d="M39.3323 14.0007C39.1944 14.0008 39.0599 13.9579 38.9476 13.878L32.9475 9.62463C32.6515 9.41024 32.5833 8.99749 32.7946 8.69927C33.0059 8.40105 33.418 8.32856 33.7183 8.53676L39.7183 12.7901C39.9553 12.958 40.0563 13.2599 39.968 13.5366C39.8798 13.8132 39.6227 14.001 39.3323 14.0007Z"/>
<path d="M26.158 4.66558C26.02 4.66565 25.8854 4.62276 25.7728 4.54285L22.5862 2.28285C21.1069 1.03284 18.9453 1.01982 17.4511 2.25191L14.2244 4.54291C14.0301 4.68072 13.777 4.70439 13.5605 4.605C13.344 4.50561 13.197 4.29827 13.1748 4.06107C13.1526 3.82387 13.2586 3.59286 13.453 3.45505L16.6396 1.19505C18.6087 -0.414977 21.4431 -0.402171 23.3975 1.22558L26.5442 3.45478C26.7813 3.62263 26.8824 3.92472 26.7941 4.2015C26.7059 4.47828 26.4485 4.66603 26.158 4.66558Z"/>
<path d="M1.10088 39.6384C0.819922 39.6386 0.568968 39.4627 0.47339 39.1985C0.377812 38.9343 0.458127 38.6385 0.67421 38.459L15.8875 25.819C16.0704 25.6635 16.3226 25.6183 16.548 25.7006C16.7734 25.7829 16.9372 25.9799 16.9769 26.2166C17.0166 26.4533 16.926 26.693 16.7397 26.8443L1.52641 39.4843C1.40697 39.5839 1.25638 39.6384 1.10088 39.6384Z"/>
<path d="M38.9004 39.6383C38.7451 39.6384 38.5946 39.5839 38.4753 39.4843L23.262 26.8443C23.0757 26.693 22.9851 26.4533 23.0248 26.2166C23.0645 25.9799 23.2283 25.7829 23.4537 25.7006C23.6791 25.6183 23.9314 25.6635 24.1142 25.819L39.3271 38.459C39.5432 38.6385 39.6235 38.9343 39.5279 39.1985C39.4323 39.4627 39.1814 39.6385 38.9004 39.6383Z"/>
<path d="M33.3333 18.9858C32.9651 18.9858 32.6667 18.6873 32.6667 18.3191V4.671C32.6647 4.685 32.638 4.66614 32.5933 4.6658H7.40667C7.3772 4.66399 7.34828 4.67436 7.32667 4.69447L7.33333 18.3191C7.33333 18.6873 7.03486 18.9858 6.66667 18.9858C6.29848 18.9858 6 18.6873 6 18.3191V4.6658C6.02151 3.90974 6.65053 3.31351 7.40667 3.33247H32.5933C33.3494 3.31358 33.9784 3.90977 34 4.6658V18.3191C34 18.6873 33.7015 18.9858 33.3333 18.9858Z"/>
</svg>
