<svg xmlns="http://www.w3.org/2000/svg" viewBox="0 0 34 40">
<path d="M17.0026 39.9987C16.7864 39.9989 16.5734 39.9462 16.3821 39.8454C15.1555 39.1979 12.847 37.8685 11.8213 37.1888C6.38121 33.57 2.86881 29.36 1.38054 24.6745C0.686664 22.4946 0.334295 20.2204 0.335943 17.9327V6.66605C0.335228 6.2585 0.520842 5.87298 0.839877 5.61938C1.15098 5.36871 1.55962 5.27402 1.94928 5.36232C8.45594 6.86072 13.5798 2.89358 16.0559 0.396516C16.582 -0.115795 17.4202 -0.116652 17.9473 0.394582C20.4251 2.89325 25.5495 6.85712 32.0531 5.36298C32.4435 5.27405 32.8532 5.36841 33.1653 5.61918C33.4844 5.87283 33.6701 6.25843 33.6693 6.66605V17.9327C33.6709 20.2207 33.3185 22.4951 32.6243 24.6753C31.1364 29.3601 27.624 33.5701 22.1849 37.1879C21.1582 37.8679 18.8499 39.1977 17.6231 39.8452C17.4318 39.9461 17.2188 39.9988 17.0026 39.9987ZM1.65334 6.66245L1.66928 17.9327C1.66768 20.0832 1.99886 22.221 2.65108 24.2702C4.04561 28.6599 7.37894 32.6323 12.5586 36.0779C13.5253 36.7179 15.8115 38.0363 17.0045 38.6661C18.1937 38.0363 20.4801 36.7178 21.4476 36.0772C26.6263 32.6322 29.9596 28.6599 31.3539 24.2709C32.0063 22.2215 32.3375 20.0835 32.3359 17.9327V6.66605C32.3357 6.66381 32.3345 6.66178 32.3327 6.66052C25.2201 8.30212 19.6735 4.02865 17.0026 1.33532C14.332 4.02898 8.78841 8.30212 1.65334 6.66245Z"/>
<path d="M4.33854 17.9974C3.97035 17.9974 3.67188 17.6989 3.67188 17.3307V9.33073C3.67188 8.96254 3.97035 8.66406 4.33854 8.66406C4.70673 8.66406 5.00521 8.96254 5.00521 9.33073V17.3307C5.00521 17.6989 4.70673 17.9974 4.33854 17.9974Z"/>
<path d="M9.0026 17.9974C8.63441 17.9974 8.33594 17.6989 8.33594 17.3307V9.33073C8.33594 8.96254 8.63441 8.66406 9.0026 8.66406C9.37079 8.66406 9.66927 8.96254 9.66927 9.33073V17.3307C9.66927 17.6989 9.37079 17.9974 9.0026 17.9974Z"/>
<path d="M9.00521 13.9974H4.33854C3.97035 13.9974 3.67188 13.6989 3.67188 13.3307C3.67188 12.9625 3.97035 12.6641 4.33854 12.6641H9.00521C9.3734 12.6641 9.67188 12.9625 9.67188 13.3307C9.67188 13.6989 9.3734 13.9974 9.00521 13.9974Z"/>
<path d="M13.6667 17.9974C13.2985 17.9974 13 17.6989 13 17.3307V9.33073C13 8.96254 13.2985 8.66406 13.6667 8.66406C14.0349 8.66406 14.3333 8.96254 14.3333 9.33073V17.3307C14.3333 17.6989 14.0349 17.9974 13.6667 17.9974Z"/>
<path d="M15.6667 9.9974H11.6667C11.2985 9.9974 11 9.69892 11 9.33073C11 8.96254 11.2985 8.66406 11.6667 8.66406H15.6667C16.0349 8.66406 16.3333 8.96254 16.3333 9.33073C16.3333 9.69892 16.0349 9.9974 15.6667 9.9974Z"/>
<path d="M20.3385 17.9974C19.9704 17.9974 19.6719 17.6989 19.6719 17.3307V9.33073C19.6719 8.96254 19.9704 8.66406 20.3385 8.66406C20.7067 8.66406 21.0052 8.96254 21.0052 9.33073V17.3307C21.0052 17.6989 20.7067 17.9974 20.3385 17.9974Z"/>
<path d="M22.3385 9.9974H18.3385C17.9704 9.9974 17.6719 9.69892 17.6719 9.33073C17.6719 8.96254 17.9704 8.66406 18.3385 8.66406H22.3385C22.7067 8.66406 23.0052 8.96254 23.0052 9.33073C23.0052 9.69892 22.7067 9.9974 22.3385 9.9974Z"/>
<path d="M25.0026 17.9974C24.6344 17.9974 24.3359 17.6989 24.3359 17.3307V9.33073C24.3359 8.96254 24.6344 8.66406 25.0026 8.66406C25.3708 8.66406 25.6693 8.96254 25.6693 9.33073V17.3307C25.6693 17.6989 25.3708 17.9974 25.0026 17.9974Z"/>
<path d="M27.6693 13.9974H25.0026C24.6344 13.9974 24.3359 13.6989 24.3359 13.3307V9.33073C24.3359 8.96254 24.6344 8.66406 25.0026 8.66406H27.6693C29.142 8.66406 30.3359 9.85797 30.3359 11.3307C30.3359 12.8035 29.142 13.9974 27.6693 13.9974ZM25.6693 12.6641H27.6693C28.4057 12.6641 29.0026 12.0671 29.0026 11.3307C29.0026 10.5943 28.4057 9.9974 27.6693 9.9974H25.6693V12.6641Z"/>
<path d="M21.0052 33.3333H13.0052C12.2691 33.3326 11.6726 32.7361 11.6719 32V25.3333C11.6726 24.5973 12.2691 24.0007 13.0052 24H21.0052C21.7413 24.0007 22.3378 24.5973 22.3385 25.3333V32C22.3378 32.7361 21.7413 33.3326 21.0052 33.3333ZM13.0052 25.3333V32H21.0062L21.0052 25.3333H13.0052Z"/>
<path d="M20.3333 25.3307H13.6667C13.2985 25.3307 13 25.0323 13 24.6641V22.6641C13 20.4549 14.7909 18.6641 17 18.6641C19.2091 18.6641 21 20.4549 21 22.6641V24.6641C21 25.0323 20.7015 25.3307 20.3333 25.3307ZM14.3333 23.9974H19.6667V22.6641C19.6667 21.1913 18.4728 19.9974 17 19.9974C15.5272 19.9974 14.3333 21.1913 14.3333 22.6641V23.9974Z"/>
<path d="M17.0026 30.6654C16.6344 30.6654 16.3359 30.3669 16.3359 29.9987V27.9987C16.3359 27.6305 16.6344 27.332 17.0026 27.332C17.3708 27.332 17.6693 27.6305 17.6693 27.9987V29.9987C17.6693 30.3669 17.3708 30.6654 17.0026 30.6654Z"/>
<path d="M17.6719 28.6654H16.3385C15.9704 28.6654 15.6719 28.3669 15.6719 27.9987C15.6719 27.6305 15.9704 27.332 16.3385 27.332H17.6719C18.0401 27.332 18.3385 27.6305 18.3385 27.9987C18.3385 28.3669 18.0401 28.6654 17.6719 28.6654Z"/>
</svg>
