<svg xmlns="http://www.w3.org/2000/svg" viewBox="0 0 65 65">
<path d="M61.7474 55.2513H3.2474C2.64909 55.2513 2.16406 54.7663 2.16406 54.168V15.168C2.16603 13.3739 3.61995 11.9199 5.41406 11.918H16.0199C16.6182 11.918 17.1032 12.403 17.1032 13.0013C17.1032 13.5996 16.6182 14.0846 16.0199 14.0846H5.41406C4.81598 14.0852 4.33127 14.5699 4.33073 15.168V53.0846H60.6641V15.168C60.6635 14.5699 60.1788 14.0852 59.5807 14.0846H48.9857C48.3874 14.0846 47.9024 13.5996 47.9024 13.0013C47.9024 12.403 48.3874 11.918 48.9857 11.918H59.5807C61.3748 11.9199 62.8288 13.3739 62.8307 15.168V54.168C62.8307 54.7663 62.3457 55.2513 61.7474 55.2513Z"/>
<path d="M57.4167 55.25H7.58333C6.98502 55.25 6.5 54.765 6.5 54.1667V18.4167C6.50137 17.2206 7.47062 16.2514 8.66667 16.25H15.1992C15.7975 16.25 16.2825 16.735 16.2825 17.3333C16.2825 17.9316 15.7975 18.4167 15.1992 18.4167H8.66667V53.0833H56.3333V18.4167H49.8008C49.2025 18.4167 48.7175 17.9316 48.7175 17.3333C48.7175 16.735 49.2025 16.25 49.8008 16.25H56.3333C57.5294 16.2514 58.4986 17.2206 58.5 18.4167V54.1667C58.5 54.765 58.015 55.25 57.4167 55.25Z"/>
<path d="M59.5833 64.9987H5.41667C2.42658 64.9952 0.00352207 62.5721 0 59.582V55.2487C0.00137309 54.0527 0.970619 53.0834 2.16667 53.082H62.8333C64.0294 53.0834 64.9986 54.0527 65 55.2487V59.582C64.9965 62.5721 62.5734 64.9952 59.5833 64.9987ZM2.16667 55.2487V59.582C2.16864 61.3761 3.62256 62.8301 5.41667 62.832H59.5833C61.3774 62.8301 62.8314 61.3761 62.8333 59.582V55.2487H2.16667Z"/>
<path d="M39.8301 59.582H25.1754C23.9432 59.5862 22.8157 58.8895 22.2682 57.7856L20.7004 54.6499C20.5324 54.3141 20.5503 53.9152 20.7477 53.5958C20.9452 53.2764 21.2939 53.082 21.6694 53.082H43.3361C43.7116 53.082 44.0603 53.2764 44.2577 53.5958C44.4551 53.9152 44.4731 54.3141 44.3051 54.6499L42.7373 57.7856C42.1897 58.8895 41.0623 59.5862 39.8301 59.582ZM23.4224 55.2487L24.2063 56.8166C24.3891 57.1844 24.7647 57.4165 25.1754 57.4154H39.8301C40.2407 57.4165 40.6164 57.1844 40.7991 56.8166L41.583 55.2487H23.4224Z"/>
<path d="M14.0833 59.5846H1.08333C0.485025 59.5846 0 59.0996 0 58.5013C0 57.903 0.485025 57.418 1.08333 57.418H14.0833C14.6816 57.418 15.1667 57.903 15.1667 58.5013C15.1667 59.0996 14.6816 59.5846 14.0833 59.5846Z"/>
<path d="M19.5026 59.5846H18.4193C17.821 59.5846 17.3359 59.0996 17.3359 58.5013C17.3359 57.903 17.821 57.418 18.4193 57.418H19.5026C20.1009 57.418 20.5859 57.903 20.5859 58.5013C20.5859 59.0996 20.1009 59.5846 19.5026 59.5846Z"/>
<path d="M63.9193 59.5846H50.9193C50.321 59.5846 49.8359 59.0996 49.8359 58.5013C49.8359 57.903 50.321 57.418 50.9193 57.418H63.9193C64.5176 57.418 65.0026 57.903 65.0026 58.5013C65.0026 59.0996 64.5176 59.5846 63.9193 59.5846Z"/>
<path d="M46.5807 59.5846H45.4974C44.8991 59.5846 44.4141 59.0996 44.4141 58.5013C44.4141 57.903 44.8991 57.418 45.4974 57.418H46.5807C47.179 57.418 47.6641 57.903 47.6641 58.5013C47.6641 59.0996 47.179 59.5846 46.5807 59.5846Z"/>
<path d="M32.4995 49.8333C31.8731 49.8335 31.2865 49.5265 30.9295 49.0118L17.684 29.2933C17.6454 29.2369 17.6127 29.1766 17.5865 29.1134C15.2434 25.9122 14.0135 22.0314 14.085 18.0649C14.2965 8.04072 22.4731 0.0193715 32.4995 1.73078e-06H32.5068C42.6496 -0.00435036 50.8834 8.19942 50.9162 18.3421C50.9263 22.2141 49.6986 25.988 47.4122 29.113C47.3856 29.1759 47.3529 29.2362 47.3147 29.2929L34.0779 48.9992C33.7214 49.5203 33.1309 49.8324 32.4995 49.8333ZM19.6222 28.2926L32.4995 47.4635L45.3863 28.2788C45.4194 28.187 45.4661 28.1007 45.5248 28.0228C47.6259 25.2335 48.7583 21.8342 48.7495 18.3421C48.718 9.39551 41.4535 2.16106 32.5068 2.16667H32.4995C23.655 2.18079 16.4402 9.25469 16.2516 18.0972C16.187 21.6728 17.3215 25.1671 19.4741 28.0228C19.5361 28.1052 19.586 28.196 19.6222 28.2926Z"/>
<path d="M27.0833 28.1654C26.485 28.1654 26 27.6803 26 27.082V11.9154C26 11.3171 26.485 10.832 27.0833 10.832C27.6816 10.832 28.1667 11.3171 28.1667 11.9154V27.082C28.1667 27.6803 27.6816 28.1654 27.0833 28.1654Z"/>
<path d="M30.3333 28.1667H23.8333C23.235 28.1667 22.75 27.6816 22.75 27.0833C22.75 26.485 23.235 26 23.8333 26H30.3333C30.9316 26 31.4167 26.485 31.4167 27.0833C31.4167 27.6816 30.9316 28.1667 30.3333 28.1667Z"/>
<path d="M30.3333 12.9987H23.8333C23.235 12.9987 22.75 12.5137 22.75 11.9154C22.75 11.3171 23.235 10.832 23.8333 10.832H30.3333C30.9316 10.832 31.4167 11.3171 31.4167 11.9154C31.4167 12.5137 30.9316 12.9987 30.3333 12.9987Z"/>
<path d="M34.6693 28.1654C34.071 28.1654 33.5859 27.6803 33.5859 27.082V11.9154C33.5859 11.3171 34.071 10.832 34.6693 10.832C35.2676 10.832 35.7526 11.3171 35.7526 11.9154V27.082C35.7526 27.6803 35.2676 28.1654 34.6693 28.1654Z"/>
<path d="M39.5443 20.582H34.6693C34.071 20.582 33.5859 20.097 33.5859 19.4987V11.9154C33.5859 11.3171 34.071 10.832 34.6693 10.832H39.5443C42.2367 10.832 44.4193 13.0146 44.4193 15.707C44.4193 18.3994 42.2367 20.582 39.5443 20.582ZM35.7526 18.4154H39.5443C41.04 18.4154 42.2526 17.2028 42.2526 15.707C42.2526 14.2113 41.04 12.9987 39.5443 12.9987H35.7526V18.4154Z"/>
</svg>
