<svg xmlns="http://www.w3.org/2000/svg" viewBox="0 0 60 60">
<path d="M36.9992 46.0014C34.8786 46.0019 32.768 45.71 30.7272 45.1337C30.3834 45.0365 30.1175 44.7633 30.0297 44.4169C29.942 44.0705 30.0456 43.7037 30.3017 43.4545C30.5578 43.2053 30.9274 43.1117 31.2712 43.2089C41.3579 46.0748 52.0131 41.0622 56.2364 31.4643C60.4597 21.8665 56.9571 10.6241 48.0298 5.12333C39.1025 -0.377428 27.4858 1.54886 20.8117 9.63665C20.4608 10.0633 19.8305 10.1247 19.4039 9.7738C18.9773 9.42294 18.9159 8.79267 19.2668 8.36605C26.0661 0.129036 37.6419 -2.34213 47.2121 2.40037C56.7823 7.14287 61.8273 17.8505 59.3914 28.2498C56.9555 38.6491 47.68 46.0024 36.9992 46.0014Z"/>
<path d="M37.0001 14.9004C34.9693 14.9004 32.923 14.815 30.9166 14.647C30.3662 14.6009 29.9574 14.1173 30.0035 13.5669C30.0497 13.0165 30.5332 12.6077 31.0836 12.6538C36.3959 13.1005 41.7417 12.939 47.0172 12.1724C47.0362 12.1694 47.0553 12.167 47.0743 12.1651C49.7996 11.8053 52.4675 11.097 55.0123 10.0576C55.5159 9.836 56.1039 10.0628 56.3282 10.5652C56.5525 11.0676 56.3289 11.6568 55.8277 11.8838C53.1048 13.0018 50.2488 13.7633 47.3307 14.1494C47.3131 14.1519 47.295 14.1543 47.277 14.1558C43.8748 14.66 40.4396 14.9089 37.0001 14.9004Z"/>
<path d="M37.0001 46.0007C36.4478 46.0007 36.0001 45.553 36.0001 45.0007C36.0001 44.4485 36.4478 44.0007 37.0001 44.0007C43.6627 44.0119 49.9327 40.8506 53.8854 35.487C51.6729 34.7147 49.39 34.1615 47.0694 33.8352C47.0514 33.8337 47.0338 33.8313 47.0172 33.8288C41.7417 33.0618 36.3958 32.9003 31.0836 33.3474C30.7275 33.3773 30.3826 33.2149 30.1788 32.9215C29.9749 32.628 29.9431 32.2481 30.0953 31.9249C30.2475 31.6016 30.5605 31.3841 30.9166 31.3542C36.3725 30.8963 41.8628 31.0612 47.2813 31.8459C47.2984 31.8474 47.315 31.8493 47.3307 31.8518C50.2488 32.238 53.1048 32.9995 55.8277 34.1174C56.0952 34.2367 56.2969 34.4673 56.3796 34.7482C56.4624 35.0291 56.4178 35.3322 56.2577 35.5774C52.0192 42.0903 44.7707 46.0136 37.0001 46.0007Z"/>
<path d="M37.0008 46C34.5623 46 32.2215 44.73 30.2308 42.3281C30.0028 42.053 29.9389 41.6772 30.0631 41.3422C30.1874 41.0072 30.4809 40.7639 30.8331 40.704C31.1854 40.6441 31.5428 40.7767 31.7708 41.0518C32.8963 42.4106 34.7208 44.0112 37.0701 44C37.1614 44 37.2513 43.9995 37.3362 43.9932C41.0042 43.7358 44.4827 39.2598 46.2025 32.5903C47.0052 29.4573 47.4012 26.2341 47.3808 23C47.4014 19.7677 47.0058 16.5463 46.204 13.415C44.4144 6.4785 40.8026 2 37.0008 2C34.0145 2 31.1531 4.6943 29.1508 9.3921C28.9342 9.9002 28.3468 10.1366 27.8387 9.92C27.3306 9.70345 27.0942 9.116 27.3108 8.6079C29.6429 3.1372 33.1746 0 37.0008 0C41.8167 0 46.0848 4.9468 48.139 12.91C48.9842 16.2061 49.4016 19.5973 49.3808 23C49.4015 26.4043 48.9837 29.7971 48.1376 33.0947C46.1708 40.7222 42.0867 45.6646 37.4808 45.9878C37.3314 45.999 37.1663 46 37.0008 46Z"/>
<path d="M37 46C36.4477 46 36 45.5523 36 45V1C36 0.447715 36.4477 0 37 0C37.5523 0 38 0.447715 38 1V45C38 45.5523 37.5523 46 37 46Z"/>
<path d="M59 24H31C30.4477 24 30 23.5523 30 23C30 22.4477 30.4477 22 31 22H59C59.5523 22 60 22.4477 60 23C60 23.5523 59.5523 24 59 24Z"/>
<path d="M28 60H4C1.79189 59.9975 0.00247994 58.2081 0 56V12C0.00247994 9.79189 1.79189 8.00248 4 8H28C30.2081 8.00248 31.9975 9.79189 32 12V56C31.9975 58.2081 30.2081 59.9975 28 60ZM4 10C2.89589 10.0011 2.0011 10.8959 2 12V56C2.0011 57.1041 2.89589 57.9989 4 58H28C29.1041 57.9989 29.9989 57.1041 30 56V12C29.9989 10.8959 29.1041 10.0011 28 10H4Z"/>
<path d="M31 52H1C0.447715 52 0 51.5523 0 51V15C0 14.4477 0.447715 14 1 14H31C31.5523 14 32 14.4477 32 15V51C32 51.5523 31.5523 52 31 52ZM2 50H30V16H2V50Z"/>
<path d="M16 58C14.3431 58 13 56.6569 13 55C13 53.3431 14.3431 52 16 52C17.6569 52 19 53.3431 19 55C18.9982 56.6561 17.6561 57.9982 16 58ZM16 54C15.4477 54 15 54.4477 15 55C15 55.5523 15.4477 56 16 56C16.5523 56 17 55.5523 17 55C16.9993 54.448 16.552 54.0007 16 54Z"/>
<path d="M19 13H13C12.4477 13 12 12.5523 12 12C12 11.4477 12.4477 11 13 11H19C19.5523 11 20 11.4477 20 12C20 12.5523 19.5523 13 19 13Z"/>
<path d="M26 40H6C4.89589 39.9989 4.0011 39.1041 4 38V25C4.0011 23.8959 4.89589 23.0011 6 23H26C27.1041 23.0011 27.9989 23.8959 28 25V38C27.9989 39.1041 27.1041 39.9989 26 40ZM6 25V38H26.0015L26 25H6Z"/>
<path d="M15.9998 33.9998C15.5349 33.9998 15.0849 33.8359 14.7288 33.5369L4.67461 25.0335C4.25283 24.6768 4.20013 24.0456 4.55691 23.6238C4.91369 23.202 5.54483 23.1494 5.96661 23.5061L16.0166 32.0061L26.0347 23.5061C26.4565 23.1494 27.0876 23.202 27.4444 23.6238C27.8012 24.0456 27.7485 24.6768 27.3267 25.0335L17.2767 33.5335C16.9192 33.8343 16.467 33.9994 15.9998 33.9998Z"/>
</svg>
