<svg xmlns="http://www.w3.org/2000/svg" viewBox="0 0 40 40">
<path d="M26.2065 19.999H13.795C12.7061 20.0053 11.6933 19.4413 11.1251 18.5123C10.5629 17.6056 10.5162 16.4707 11.0021 15.5208L17.2288 4.99966C17.7768 3.96675 18.8536 3.32411 20.0229 3.33211C21.1922 3.3401 22.26 3.99741 22.7939 5.03773L28.9788 15.4827C29.4824 16.4397 29.4436 17.5915 28.8766 18.5123C28.3084 19.4413 27.2955 20.0053 26.2065 19.999ZM20.0008 4.66566C19.3231 4.65539 18.6994 5.03453 18.3966 5.64093L12.17 16.1621C11.9094 16.691 11.9439 17.3176 12.2611 17.8147C12.588 18.3476 13.17 18.6704 13.795 18.6657H26.2065C26.8316 18.6704 27.4135 18.3475 27.7404 17.8147C28.0626 17.3037 28.0893 16.66 27.8106 16.124L21.6258 5.67899C21.3266 5.05453 20.6932 4.65953 20.0008 4.66566Z"/>
<path d="M20.0026 14.6654C19.6344 14.6654 19.3359 14.3669 19.3359 13.9987V7.9987C19.3359 7.63051 19.6344 7.33203 20.0026 7.33203C20.3708 7.33203 20.6693 7.63051 20.6693 7.9987V13.9987C20.6693 14.3669 20.3708 14.6654 20.0026 14.6654Z"/>
<path d="M20.0026 17.3333C20.3708 17.3333 20.6693 17.0349 20.6693 16.6667C20.6693 16.2985 20.3708 16 20.0026 16C19.6344 16 19.3359 16.2985 19.3359 16.6667C19.3359 17.0349 19.6344 17.3333 20.0026 17.3333Z"/>
<path d="M35.3307 35.0267C34.9625 35.0267 34.6641 34.7282 34.6641 34.36V31.3333H21.9974V34.36C21.9974 34.7282 21.6989 35.0267 21.3307 35.0267C20.9625 35.0267 20.6641 34.7282 20.6641 34.36V30.6667C20.6641 30.2985 20.9625 30 21.3307 30H35.3307C35.6989 30 35.9974 30.2985 35.9974 30.6667V34.36C35.9974 34.7282 35.6989 35.0267 35.3307 35.0267Z"/>
<path d="M2.0026 35.0267C1.63441 35.0267 1.33594 34.7282 1.33594 34.36V30C1.33748 28.5279 2.53048 27.3349 4.0026 27.3333H18.0026V24.6667C18.0026 24.2985 18.3011 24 18.6693 24C19.0375 24 19.3359 24.2985 19.3359 24.6667V28C19.3359 28.3682 19.0375 28.6667 18.6693 28.6667H4.0026C3.26657 28.6675 2.67012 29.264 2.66927 30V34.36C2.66927 34.7282 2.37079 35.0267 2.0026 35.0267Z"/>
<path d="M37.9974 35.0267C37.6292 35.0267 37.3307 34.7282 37.3307 34.36V30C37.3299 29.264 36.7334 28.6675 35.9974 28.6667H21.3307C20.9625 28.6667 20.6641 28.3682 20.6641 28V24.6667C20.6641 24.2985 20.9625 24 21.3307 24C21.6989 24 21.9974 24.2985 21.9974 24.6667V27.3333H35.9974C37.4695 27.3349 38.6625 28.5279 38.6641 30V34.36C38.6641 34.7282 38.3656 35.0267 37.9974 35.0267Z"/>
<path d="M18.6667 35.0267C18.2985 35.0267 18 34.7282 18 34.36V31.3333H5.33333V34.36C5.33333 34.7282 5.03486 35.0267 4.66667 35.0267C4.29848 35.0267 4 34.7282 4 34.36V30.6667C4 30.2985 4.29848 30 4.66667 30H18.6667C19.0349 30 19.3333 30.2985 19.3333 30.6667V34.36C19.3333 34.7282 19.0349 35.0267 18.6667 35.0267Z"/>
<path d="M34.6643 22.668H5.33094C5.10966 22.668 4.90277 22.5583 4.7787 22.3751C4.65464 22.1918 4.62958 21.959 4.7118 21.7536L7.37847 15.0869C7.47987 14.8339 7.72502 14.668 7.9976 14.668H11.8843C12.2525 14.668 12.5509 14.9664 12.5509 15.3346C12.5509 15.7028 12.2525 16.0013 11.8843 16.0013H8.4488L6.31547 21.3346H33.6799L31.5465 16.0013H28.1109C27.7428 16.0013 27.4443 15.7028 27.4443 15.3346C27.4443 14.9664 27.7428 14.668 28.1109 14.668H31.9976C32.2702 14.668 32.5153 14.8339 32.6167 15.0869L35.2834 21.7536C35.3656 21.959 35.3406 22.1918 35.2165 22.3751C35.0924 22.5583 34.8856 22.668 34.6643 22.668Z"/>
<path d="M33.9974 25.332H5.9974C5.26137 25.3312 4.66491 24.7347 4.66406 23.9987V21.9987C4.66406 21.6305 4.96254 21.332 5.33073 21.332C5.69892 21.332 5.9974 21.6305 5.9974 21.9987V23.9987H33.9974V21.9987C33.9974 21.6305 34.2959 21.332 34.6641 21.332C35.0323 21.332 35.3307 21.6305 35.3307 21.9987V23.9987C35.3299 24.7347 34.7334 25.3312 33.9974 25.332Z"/>
<path d="M32.0026 16H28.1159C27.7477 16 27.4493 15.7015 27.4493 15.3333C27.4493 14.9651 27.7477 14.6667 28.1159 14.6667H31.3359V1.33333H8.66927V14.6667H11.8893C12.2575 14.6667 12.5559 14.9651 12.5559 15.3333C12.5559 15.7015 12.2575 16 11.8893 16H8.0026C7.63441 16 7.33594 15.7015 7.33594 15.3333V1.33333C7.33678 0.597304 7.93324 0.00084498 8.66927 0H31.3359C32.072 0.00084498 32.6684 0.597304 32.6693 1.33333V15.3333C32.6693 15.7015 32.3708 16 32.0026 16Z"/>
<path d="M3.33333 39.9987C1.49238 39.9987 0 38.5063 0 36.6654C0 34.8244 1.49238 33.332 3.33333 33.332C5.17428 33.332 6.66667 34.8244 6.66667 36.6654C6.6645 38.5054 5.17338 39.9965 3.33333 39.9987ZM3.33333 34.6654C2.22876 34.6654 1.33333 35.5608 1.33333 36.6654C1.33333 37.7699 2.22876 38.6654 3.33333 38.6654C4.4379 38.6654 5.33333 37.7699 5.33333 36.6654C5.33212 35.5613 4.4374 34.6666 3.33333 34.6654Z"/>
<path d="M36.6693 39.9987C34.8283 39.9987 33.3359 38.5063 33.3359 36.6654C33.3359 34.8244 34.8283 33.332 36.6693 33.332C38.5102 33.332 40.0026 34.8244 40.0026 36.6654C40.0004 38.5054 38.5093 39.9965 36.6693 39.9987ZM36.6693 34.6654C35.5647 34.6654 34.6693 35.5608 34.6693 36.6654C34.6693 37.7699 35.5647 38.6654 36.6693 38.6654C37.7738 38.6654 38.6693 37.7699 38.6693 36.6654C38.6681 35.5613 37.7733 34.6666 36.6693 34.6654Z"/>
<path d="M19.9974 39.9987C18.1564 39.9987 16.6641 38.5063 16.6641 36.6654C16.6641 34.8244 18.1564 33.332 19.9974 33.332C21.8383 33.332 23.3307 34.8244 23.3307 36.6654C23.3286 38.5054 21.8374 39.9965 19.9974 39.9987ZM19.9974 34.6654C18.8928 34.6654 17.9974 35.5608 17.9974 36.6654C17.9974 37.7699 18.8928 38.6654 19.9974 38.6654C21.102 38.6654 21.9974 37.7699 21.9974 36.6654C21.9962 35.5613 21.1015 34.6666 19.9974 34.6654Z"/>
</svg>
