<svg xmlns="http://www.w3.org/2000/svg" viewBox="0 0 65 55">
<path d="M61.7513 44.2904H3.2513C2.65299 44.2904 2.16797 43.8053 2.16797 43.207V4.20703C2.16994 2.41292 3.62386 0.959002 5.41797 0.957031H59.5846C61.3787 0.959002 62.8327 2.41292 62.8346 4.20703V43.207C62.8346 43.8053 62.3496 44.2904 61.7513 44.2904ZM4.33464 42.1237H60.668V4.20703C60.6674 3.60895 60.1827 3.12424 59.5846 3.1237H5.41797C4.81988 3.12424 4.33517 3.60895 4.33464 4.20703V42.1237Z"/>
<path d="M57.4167 44.2891H7.58333C6.98502 44.2891 6.5 43.804 6.5 43.2057V7.45573C6.50137 6.25968 7.47062 5.29044 8.66667 5.28906H56.3333C57.5294 5.29044 58.4986 6.25968 58.5 7.45573V43.2057C58.5 43.804 58.015 44.2891 57.4167 44.2891ZM8.66667 42.1224H56.3333V7.45573H8.66667V42.1224Z"/>
<path d="M59.5833 54.0417H5.41667C2.42658 54.0381 0.00352207 51.6151 0 48.625V44.2917C0.00137309 43.0956 0.970619 42.1264 2.16667 42.125H62.8333C64.0294 42.1264 64.9986 43.0956 65 44.2917V48.625C64.9965 51.6151 62.5734 54.0381 59.5833 54.0417ZM2.16667 44.2917V48.625C2.16864 50.4191 3.62256 51.873 5.41667 51.875H59.5833C61.3774 51.873 62.8314 50.4191 62.8333 48.625V44.2917H2.16667Z"/>
<path d="M39.8262 48.625H25.1715C23.9393 48.6291 22.8118 47.9325 22.2643 46.8286L20.6964 43.6929C20.5285 43.3571 20.5464 42.9582 20.7438 42.6388C20.9412 42.3194 21.29 42.125 21.6655 42.125H43.3322C43.7077 42.125 44.0564 42.3194 44.2538 42.6388C44.4512 42.9582 44.4692 43.3571 44.3012 43.6929L42.7334 46.8286C42.1858 47.9325 41.0584 48.6291 39.8262 48.625ZM23.4185 44.2917L24.2024 45.8596C24.3852 46.2273 24.7608 46.4595 25.1715 46.4583H39.8262C40.2368 46.4595 40.6125 46.2273 40.7952 45.8596L41.5791 44.2917H23.4185Z"/>
<path d="M14.0833 48.6237H1.08333C0.485025 48.6237 0 48.1387 0 47.5404C0 46.9421 0.485025 46.457 1.08333 46.457H14.0833C14.6816 46.457 15.1667 46.9421 15.1667 47.5404C15.1667 48.1387 14.6816 48.6237 14.0833 48.6237Z"/>
<path d="M19.4987 48.6237H18.4154C17.8171 48.6237 17.332 48.1387 17.332 47.5404C17.332 46.9421 17.8171 46.457 18.4154 46.457H19.4987C20.097 46.457 20.582 46.9421 20.582 47.5404C20.582 48.1387 20.097 48.6237 19.4987 48.6237Z"/>
<path d="M63.9154 48.6237H50.9154C50.3171 48.6237 49.832 48.1387 49.832 47.5404C49.832 46.9421 50.3171 46.457 50.9154 46.457H63.9154C64.5137 46.457 64.9987 46.9421 64.9987 47.5404C64.9987 48.1387 64.5137 48.6237 63.9154 48.6237Z"/>
<path d="M46.5846 48.6237H45.5013C44.903 48.6237 44.418 48.1387 44.418 47.5404C44.418 46.9421 44.903 46.457 45.5013 46.457H46.5846C47.1829 46.457 47.668 46.9421 47.668 47.5404C47.668 48.1387 47.1829 48.6237 46.5846 48.6237Z"/>
<path d="M26.5417 39.9583C24.4476 39.9583 22.75 38.2607 22.75 36.1667C22.75 34.0726 24.4476 32.375 26.5417 32.375C28.6357 32.375 30.3333 34.0726 30.3333 36.1667C30.3308 38.2597 28.6347 39.9558 26.5417 39.9583ZM26.5417 34.5417C25.6442 34.5417 24.9167 35.2692 24.9167 36.1667C24.9167 37.0641 25.6442 37.7917 26.5417 37.7917C27.4391 37.7917 28.1667 37.0641 28.1667 36.1667C28.1657 35.2696 27.4387 34.5427 26.5417 34.5417Z"/>
<path d="M40.6237 39.9583C38.5296 39.9583 36.832 38.2607 36.832 36.1667C36.832 34.0726 38.5296 32.375 40.6237 32.375C42.7178 32.375 44.4154 34.0726 44.4154 36.1667C44.4129 38.2597 42.7167 39.9558 40.6237 39.9583ZM40.6237 34.5417C39.7262 34.5417 38.9987 35.2692 38.9987 36.1667C38.9987 37.0641 39.7262 37.7917 40.6237 37.7917C41.5212 37.7917 42.2487 37.0641 42.2487 36.1667C42.2477 35.2696 41.5207 34.5427 40.6237 34.5417Z"/>
<path d="M43.5704 30.2057H23.8333C23.235 30.2057 22.75 29.7207 22.75 29.1224C22.75 28.5241 23.235 28.0391 23.8333 28.0391H43.5704L46.28 17.2057H22.2083C21.61 17.2057 21.125 16.7207 21.125 16.1224C21.125 15.5241 21.61 15.0391 22.2083 15.0391H46.2787C46.9458 15.0392 47.5756 15.3465 47.9863 15.8721C48.397 16.3978 48.5428 17.0832 48.3817 17.7305L45.6723 28.5649C45.4323 29.5301 44.5649 30.2072 43.5704 30.2057Z"/>
<path d="M44.4154 34.5404H25.1714C24.0449 34.5405 22.9986 33.9573 22.4064 32.9991C21.8141 32.0409 21.7603 30.8443 22.2641 29.8367L22.7159 28.9327L21.0644 15.7206C20.859 14.0955 19.4779 12.8762 17.8399 12.8737H15.1654C14.5671 12.8737 14.082 12.3887 14.082 11.7904C14.082 11.1921 14.5671 10.707 15.1654 10.707H17.8399C20.5704 10.7103 22.8728 12.743 23.2145 15.452L24.9069 28.9894C24.9332 29.2016 24.8964 29.4169 24.8011 29.6083L24.2023 30.8058C24.0344 31.1416 24.0523 31.5405 24.2497 31.8599C24.4471 32.1793 24.7959 32.3737 25.1714 32.3737H44.4154C45.0137 32.3737 45.4987 32.8587 45.4987 33.457C45.4987 34.0553 45.0137 34.5404 44.4154 34.5404Z"/>
<path d="M37.9168 30.2068H30.3334C29.77 30.2071 29.3006 29.7749 29.2543 29.2134L28.171 16.2134C28.1265 15.8211 28.2988 15.4357 28.6209 15.2074C28.9429 14.9791 29.3637 14.944 29.7191 15.1159C30.0745 15.2877 30.3082 15.6393 30.3292 16.0335L31.3301 28.0401H36.9996L39.0146 15.9451C39.1187 15.3607 39.6739 14.9688 40.2595 15.0666C40.8451 15.1643 41.2429 15.7152 41.1516 16.3018L38.9849 29.3018C38.8981 29.824 38.4462 30.2069 37.9168 30.2068Z"/>
<path d="M46.0417 23.7057H23.0208C22.4225 23.7057 21.9375 23.2207 21.9375 22.6224C21.9375 22.0241 22.4225 21.5391 23.0208 21.5391H46.0417C46.64 21.5391 47.125 22.0241 47.125 22.6224C47.125 23.2207 46.64 23.7057 46.0417 23.7057Z"/>
</svg>
