<svg xmlns="http://www.w3.org/2000/svg" viewBox="0 0 403 288">
<path d="M63.9995 1.9981C33.7328 10.2648 9.86615 34.3981 2.13281 64.7981C-0.533854 75.3314 -0.533854 96.6648 2.13281 107.998C7.73281 131.731 24.6661 153.065 46.6661 163.865C65.3328 172.931 84.7995 175.465 104.666 171.331C109.733 170.265 114.133 169.331 114.266 169.331C115.199 169.331 114.533 177.865 113.199 184.265C110.133 198.398 101.599 211.465 90.1328 219.331C81.1995 225.331 73.7328 227.865 60.5328 229.331C47.8661 230.665 40.5328 233.865 34.9328 240.665C25.5995 251.998 25.8661 267.198 35.5995 278.531C42.3995 286.531 49.0661 288.531 66.3995 287.731C114.133 285.331 155.866 250.665 169.599 201.865C172.533 191.731 172.666 189.465 172.666 130.665V69.9981L168.933 59.3314C159.466 32.7981 141.333 14.1314 114.933 4.26476C107.466 1.46476 103.199 0.798097 88.6661 0.53143C76.2661 0.13143 69.3328 0.53143 63.9995 1.9981ZM111.199 11.8648C136.399 20.7981 155.199 41.0648 162.399 67.0648C164.399 74.2648 164.666 82.2648 164.533 131.998C164.533 186.131 164.399 189.198 161.599 199.198C153.066 229.998 132.266 255.331 104.666 268.665C88.5328 276.531 78.1328 279.065 62.3995 279.198C51.3328 279.331 49.0661 278.931 45.7328 276.531C34.1328 267.865 33.9995 250.931 45.5995 242.265C47.9995 240.398 53.3328 239.065 62.9328 237.865C99.8661 233.065 122.666 207.331 122.666 170.265C122.666 163.465 122.133 158.665 121.333 158.665C120.666 158.665 115.333 159.998 109.733 161.598C95.3328 165.598 76.1328 165.731 63.3328 161.598C30.2661 151.331 7.99948 121.198 7.99948 86.6648C7.99948 64.3981 15.1995 47.3314 31.3328 31.3314C42.7995 19.7314 53.0661 13.7314 67.4661 9.9981C78.5328 7.1981 100.666 8.13143 111.199 11.8648Z"/>
<path d="M294.268 2.1314C289.868 3.19806 281.735 6.39806 276.135 9.3314C213.335 41.9981 214.535 133.998 278.001 164.665C296.668 173.731 322.801 175.865 341.735 169.865C343.735 169.198 344.001 170.131 344.001 175.731C344.001 203.065 321.335 226.265 291.601 229.331C274.268 231.065 267.201 235.198 261.335 246.665C258.935 251.331 258.535 254.131 258.935 261.331C259.468 271.731 262.801 277.865 271.201 283.731C275.868 286.931 277.868 287.331 289.335 287.731C339.601 289.598 387.601 251.331 400.001 199.731C402.401 189.598 402.668 183.998 402.668 130.798C402.668 66.5314 402.535 64.9314 393.601 46.6647C389.868 39.0647 386.001 33.9981 377.335 25.3314C364.668 12.6647 352.801 5.7314 337.335 2.1314C326.535 -0.401936 304.668 -0.401936 294.268 2.1314ZM334.535 9.99806C356.268 15.1981 376.668 31.5981 386.401 51.9981C389.335 58.2647 392.401 66.5314 393.201 70.3981C394.135 74.7981 394.668 97.4647 394.668 130.798C394.668 189.465 394.001 195.998 386.401 214.265C378.535 233.465 360.268 254.265 341.735 265.198C328.001 273.331 310.001 278.798 294.668 279.598C282.935 280.265 281.601 279.998 277.468 277.198C269.868 271.865 267.335 267.331 267.335 259.331C267.335 246.665 275.201 239.598 291.201 238.131C319.068 235.598 340.535 219.198 349.335 193.865C352.668 184.398 354.668 158.665 352.135 158.665C351.335 158.665 345.601 159.998 339.601 161.598C323.468 165.865 305.468 165.598 291.335 160.798C258.135 149.465 238.135 121.065 238.268 85.3314C238.535 48.3981 264.535 16.6647 300.668 9.3314C309.468 7.59806 325.468 7.86473 334.535 9.99806Z"/>
</svg>
