<svg xmlns="http://www.w3.org/2000/svg" viewBox="0 0 21 16">
<path d="M16.5 15.5C14.0156 15.5 12 13.4844 12 11L12 6.5C12 3.17187 14.7188 0.5 18 0.5C18.8438 0.5 19.5 1.15625 19.5 2C19.5 2.79688 18.8438 3.5 18 3.5C16.3594 3.5 15 4.8125 15 6.5V6.73438C15.5156 6.59375 15.9844 6.5 16.5 6.5C19.0312 6.5 21 8.46875 21 11C21 13.4844 19.0312 15.5 16.5 15.5ZM0 11V6.5C0 3.17187 2.71875 0.5 6 0.5C6.84375 0.5 7.5 1.15625 7.5 2C7.5 2.79687 6.84375 3.5 6 3.5C4.35938 3.5 3 4.8125 3 6.5V6.73437C3.51562 6.59375 3.98438 6.5 4.5 6.5C7.03125 6.5 9 8.46875 9 11C9 13.4844 7.03125 15.5 4.5 15.5C2.01562 15.5 0 13.4844 0 11Z"/>
</svg>
