<svg xmlns="http://www.w3.org/2000/svg" viewBox="0 0 30 40">
<path d="M27.0026 40H3.0026C1.53053 39.9983 0.337591 38.8054 0.335938 37.3333V2.66667C0.337591 1.19459 1.53053 0.00165329 3.0026 0H27.0026C28.4747 0.00165329 29.6676 1.19459 29.6693 2.66667V37.3333C29.6676 38.8054 28.4747 39.9983 27.0026 40ZM3.0026 1.33333C2.26653 1.33407 1.67001 1.93059 1.66927 2.66667V37.3333C1.67001 38.0694 2.26653 38.6659 3.0026 38.6667H27.0026C27.7387 38.6659 28.3352 38.0694 28.3359 37.3333V2.66667C28.3352 1.93059 27.7387 1.33407 27.0026 1.33333H3.0026Z"/>
<path d="M19.6693 5.33333H7.66927C6.9332 5.3326 6.33667 4.73607 6.33594 4V0.666667C6.33594 0.298477 6.63441 0 7.0026 0H20.3359C20.7041 0 21.0026 0.298477 21.0026 0.666667V4C21.0019 4.73607 20.4053 5.3326 19.6693 5.33333ZM7.66927 1.33333V4H19.6693V1.33333H7.66927Z"/>
<path d="M3.66667 4.0013C4.03486 4.0013 4.33333 3.70283 4.33333 3.33464C4.33333 2.96645 4.03486 2.66797 3.66667 2.66797C3.29848 2.66797 3 2.96645 3 3.33464C3 3.70283 3.29848 4.0013 3.66667 4.0013Z"/>
<path d="M26.3385 4.0013C26.7067 4.0013 27.0052 3.70283 27.0052 3.33464C27.0052 2.96645 26.7067 2.66797 26.3385 2.66797C25.9704 2.66797 25.6719 2.96645 25.6719 3.33464C25.6719 3.70283 25.9704 4.0013 26.3385 4.0013Z"/>
<path d="M3.66667 37.3333C4.03486 37.3333 4.33333 37.0349 4.33333 36.6667C4.33333 36.2985 4.03486 36 3.66667 36C3.29848 36 3 36.2985 3 36.6667C3 37.0349 3.29848 37.3333 3.66667 37.3333Z"/>
<path d="M26.3385 37.3333C26.7067 37.3333 27.0052 37.0349 27.0052 36.6667C27.0052 36.2985 26.7067 36 26.3385 36C25.9704 36 25.6719 36.2985 25.6719 36.6667C25.6719 37.0349 25.9704 37.3333 26.3385 37.3333Z"/>
<path d="M15.6667 5.33333C15.2985 5.33333 15 5.03486 15 4.66667V0.666667C15 0.298477 15.2985 0 15.6667 0C16.0349 0 16.3333 0.298477 16.3333 0.666667V4.66667C16.3333 5.03486 16.0349 5.33333 15.6667 5.33333Z"/>
<path d="M23.6667 35.3333H6.33333C4.49328 35.3312 3.00217 33.8401 3 32V13.3333C3.00217 11.4933 4.49328 10.0022 6.33333 10H23.6667C25.5067 10.0022 26.9978 11.4933 27 13.3333V32C26.9978 33.8401 25.5067 35.3312 23.6667 35.3333ZM6.33333 11.3333C5.22927 11.3345 4.33455 12.2293 4.33333 13.3333V32C4.33455 33.1041 5.22927 33.9988 6.33333 34H23.6667C24.7707 33.9988 25.6655 33.1041 25.6667 32V13.3333C25.6655 12.2293 24.7707 11.3345 23.6667 11.3333H6.33333Z"/>
<path d="M8.33864 23.335C7.26003 23.3355 6.28742 22.6859 5.87475 21.6894C5.46207 20.6928 5.69069 19.5458 6.45391 18.7836C7.50809 17.7753 9.16919 17.7753 10.2234 18.7836C10.7253 19.2822 11.0069 19.9609 11.0053 20.6683C11.0053 21.0365 10.7068 21.335 10.3386 21.335C9.97045 21.335 9.67198 21.0365 9.67198 20.6683C9.67259 20.3147 9.5317 19.9754 9.28071 19.7263C8.754 19.2217 7.92329 19.2217 7.39658 19.7263C7.01478 20.1072 6.9003 20.6807 7.10661 21.179C7.31292 21.6774 7.79931 22.0021 8.33864 22.0017C8.70683 22.0017 9.00531 22.3002 9.00531 22.6683C9.00531 23.0365 8.70683 23.335 8.33864 23.335Z"/>
<path d="M8.33854 27.3333C6.86647 27.3317 5.67353 26.1387 5.67188 24.6667C5.67188 24.2985 5.97035 24 6.33854 24C6.70673 24 7.00521 24.2985 7.00521 24.6667C7.0058 25.4022 7.60232 25.9981 8.33783 25.9979C9.07334 25.9977 9.66954 25.4015 9.66974 24.666C9.66994 23.9304 9.07405 23.3339 8.33854 23.3333C7.97035 23.3333 7.67188 23.0349 7.67188 22.6667C7.67188 22.2985 7.97035 22 8.33854 22C9.8113 22 11.0052 23.1939 11.0052 24.6667C11.0052 26.1394 9.8113 27.3333 8.33854 27.3333Z"/>
<path d="M15.0027 23.335C13.9241 23.3355 12.9515 22.6859 12.5388 21.6894C12.1261 20.6928 12.3548 19.5458 13.118 18.7836C14.1722 17.7753 15.8333 17.7753 16.8874 18.7836C17.3894 19.2822 17.6709 19.9609 17.6694 20.6683C17.6694 21.0365 17.3709 21.335 17.0027 21.335C16.6345 21.335 16.336 21.0365 16.336 20.6683C16.3366 20.3147 16.1958 19.9754 15.9448 19.7263C15.4181 19.2217 14.5874 19.2217 14.0606 19.7263C13.6788 20.1072 13.5644 20.6807 13.7707 21.179C13.977 21.6774 14.4634 22.0021 15.0027 22.0017C15.3709 22.0017 15.6694 22.3002 15.6694 22.6683C15.6694 23.0365 15.3709 23.335 15.0027 23.335Z"/>
<path d="M15.0026 27.3333C13.5305 27.3317 12.3376 26.1387 12.3359 24.6667C12.3359 24.2985 12.6344 24 13.0026 24C13.3708 24 13.6693 24.2985 13.6693 24.6667C13.6699 25.4022 14.2664 25.9981 15.0019 25.9979C15.7374 25.9977 16.3336 25.4015 16.3338 24.666C16.334 23.9304 15.7381 23.3339 15.0026 23.3333C14.6344 23.3333 14.3359 23.0349 14.3359 22.6667C14.3359 22.2985 14.6344 22 15.0026 22C16.4754 22 17.6693 23.1939 17.6693 24.6667C17.6693 26.1394 16.4754 27.3333 15.0026 27.3333Z"/>
<path d="M21.6667 27.3333H19.6667C19.2985 27.3333 19 27.0349 19 26.6667V18.6667C19 18.2985 19.2985 18 19.6667 18H21.6667C23.1387 18.0017 24.3317 19.1946 24.3333 20.6667V24.6667C24.3317 26.1387 23.1387 27.3317 21.6667 27.3333ZM20.3333 26H21.6667C22.4027 25.9993 22.9993 25.4027 23 24.6667V20.6667C22.9993 19.9306 22.4027 19.3341 21.6667 19.3333H20.3333V26Z"/>
</svg>
