<svg xmlns="http://www.w3.org/2000/svg" viewBox="0 0 34 40">
<path d="M23.6719 27.3021H22.3386C22.0284 27.3038 21.7207 27.2477 21.431 27.1367C20.3719 26.7626 19.6658 25.7587 19.6719 24.6354C19.6735 23.1633 20.8665 21.9703 22.3386 21.9688H23.6719C25.1447 21.9688 26.3386 23.1627 26.3386 24.6354C26.3386 26.1082 25.1447 27.3021 23.6719 27.3021ZM22.3386 23.3021C21.6026 23.3029 21.0061 23.8994 21.0052 24.6354C21.0021 25.1975 21.3566 25.6994 21.8874 25.8844C22.0312 25.9404 22.1842 25.969 22.3386 25.9688H23.6719C24.4083 25.9688 25.0052 25.3718 25.0052 24.6354C25.0052 23.899 24.4083 23.3021 23.6719 23.3021H22.3386Z"/>
<path d="M23.0252 31.3021H22.3385C20.8658 31.3021 19.6719 30.1082 19.6719 28.6354C19.6719 27.1627 20.8658 25.9688 22.3385 25.9688H23.0252C24.498 25.9688 25.6919 27.1627 25.6919 28.6354C25.6919 30.1082 24.498 31.3021 23.0252 31.3021ZM22.3385 27.3021C21.6022 27.3021 21.0052 27.899 21.0052 28.6354C21.0052 29.3718 21.6022 29.9688 22.3385 29.9688H23.0252C23.7616 29.9688 24.3585 29.3718 24.3585 28.6354C24.3585 27.899 23.7616 27.3021 23.0252 27.3021H22.3385Z"/>
<path d="M5.66667 17.452C5.29848 17.452 5 17.1536 5 16.7854V5.9987C5.00154 4.52658 6.19455 3.33357 7.66667 3.33203H14.5867C14.9549 3.33203 15.2533 3.63051 15.2533 3.9987C15.2533 4.36689 14.9549 4.66536 14.5867 4.66536H7.66667C6.93064 4.66621 6.33418 5.26267 6.33333 5.9987V16.7854C6.33333 17.1536 6.03486 17.452 5.66667 17.452Z"/>
<path d="M19.6667 33.3015H7.66667C6.19456 33.2999 5.00158 32.1069 5 30.6348V22.3815C5 22.0133 5.29848 21.7148 5.66667 21.7148C6.03486 21.7148 6.33333 22.0133 6.33333 22.3815V30.6348C6.33418 31.3709 6.93064 31.9673 7.66667 31.9682H19.6667C20.4027 31.9673 20.9992 31.3709 21 30.6348V30.5148C21 30.1467 21.2985 29.8482 21.6667 29.8482C22.0349 29.8482 22.3333 30.1467 22.3333 30.5148V30.6348C22.3318 32.1069 21.1388 33.2999 19.6667 33.3015Z"/>
<path d="M13.6693 40.0015H5.66926C4.56519 40.0003 3.67047 39.1056 3.66926 38.0015V37.3348C3.55723 36.48 3.20856 35.6735 2.66259 35.0064C2.53633 34.8146 2.41199 34.6255 2.29593 34.4377C2.00753 33.9696 1.75946 33.6158 1.54793 33.3134C0.788448 32.3819 0.367895 31.2202 0.355194 30.0184C0.295928 29.2245 0.385794 27.5634 0.458061 26.2287C0.491394 25.62 0.520528 25.0796 0.529661 24.7287C0.542661 24.2128 0.521861 22.5373 0.502328 20.9168L0.491928 20.1021C0.483198 19.0127 0.90837 17.9645 1.6736 17.1891C2.43883 16.4136 3.48121 15.9745 4.57066 15.9688C5.52912 15.9763 6.46327 16.2713 7.25233 16.8154C7.64472 17.0737 8.07081 17.2767 8.51859 17.4186C9.41195 17.664 10.3225 17.8417 11.2426 17.9502C12.2421 18.0637 12.9984 18.9073 13.0026 19.9133V20.0314C13.0026 20.0672 12.9493 23.6161 8.35673 23.6268C7.5202 23.6903 4.53713 23.1874 3.73959 21.5923C3.57492 21.2629 3.70842 20.8625 4.03776 20.6978C4.36711 20.5331 4.76759 20.6666 4.93226 20.996C5.37173 21.8749 7.71893 22.3537 8.21286 22.3058C8.25306 22.2957 8.29452 22.2915 8.33593 22.2935C11.6315 22.2935 11.6693 20.1239 11.6693 20.0314V19.9133C11.6646 19.5831 11.4137 19.3086 11.0853 19.2743C10.0952 19.1574 9.11544 18.9659 8.15426 18.7014C7.5939 18.5286 7.06018 18.2791 6.56833 17.9598C5.99097 17.5394 5.29684 17.3095 4.58266 17.3023H4.57353C3.0464 17.3133 1.8167 18.559 1.82553 20.0862L1.83526 20.9006C1.85673 22.6086 1.87693 24.2219 1.86326 24.7636C1.85353 25.1236 1.82326 25.6769 1.78993 26.301C1.71959 27.5975 1.63233 29.2112 1.68506 29.9195C1.68282 30.8813 2.02143 31.8128 2.64079 32.5487C2.86479 32.8687 3.12646 33.243 3.43186 33.7382C3.54053 33.9149 3.65853 34.0933 3.77686 34.274C4.47983 35.1502 4.90647 36.2156 5.00259 37.3348V38.0015C5.00293 38.3695 5.30121 38.6678 5.66926 38.6682H13.6693C14.0373 38.6678 14.3356 38.3695 14.3359 38.0015V36.6356C14.3366 35.9167 14.7236 35.2535 15.3493 34.8993C17.7484 33.5409 18.404 32.3423 18.4105 32.3303C18.5819 32.0074 18.9803 31.8813 19.3063 32.0468C19.631 32.2118 19.7618 32.6078 19.5993 32.9338C19.5211 33.0894 18.7588 34.5008 16.0059 36.0594C15.7982 36.1769 15.6697 36.397 15.6693 36.6356V38.0015C15.668 39.1056 14.7733 40.0003 13.6693 40.0015Z"/>
<path d="M5.66667 17.4554C5.49017 17.4562 5.32064 17.3867 5.19553 17.2622C5.07043 17.1377 5.00007 16.9685 5 16.792V7.9987C5 7.63051 5.29848 7.33203 5.66667 7.33203H12.2C12.5682 7.33203 12.8667 7.63051 12.8667 7.9987C12.8667 8.36689 12.5682 8.66536 12.2 8.66536H6.33333V16.7854C6.33374 17.1543 6.03557 17.454 5.66667 17.4554Z"/>
<path d="M21.6667 27.4143C21.2985 27.4143 21 27.1158 21 26.7477V26.5143C21 26.1461 21.2985 25.8477 21.6667 25.8477C22.0349 25.8477 22.3333 26.1461 22.3333 26.5143V26.7477C22.3333 27.1158 22.0349 27.4143 21.6667 27.4143Z"/>
<path d="M20.3333 29.3348H5.66667C5.29848 29.3348 5 29.0364 5 28.6682V22.3815C5 22.0133 5.29848 21.7148 5.66667 21.7148C6.03486 21.7148 6.33333 22.0133 6.33333 22.3815V28.0015H20.3333C20.7015 28.0015 21 28.3 21 28.6682C21 29.0364 20.7015 29.3348 20.3333 29.3348Z"/>
<path d="M21.6667 23.4116C21.2985 23.4116 21 23.1131 21 22.7449V22.5182C21 22.15 21.2985 21.8516 21.6667 21.8516C22.0349 21.8516 22.3333 22.15 22.3333 22.5182V22.7449C22.3333 23.1131 22.0349 23.4116 21.6667 23.4116Z"/>
<path d="M13.6719 32.668C12.5673 32.668 11.6719 31.7725 11.6719 30.668C11.6719 29.5634 12.5673 28.668 13.6719 28.668C14.7764 28.668 15.6719 29.5634 15.6719 30.668C15.6707 31.772 14.7759 32.6668 13.6719 32.668ZM13.6719 30.0013C13.3037 30.0013 13.0052 30.2998 13.0052 30.668C13.0052 31.0362 13.3037 31.3346 13.6719 31.3346C14.0401 31.3346 14.3385 31.0362 14.3385 30.668C14.3382 30.2999 14.0399 30.0016 13.6719 30.0013Z"/>
<path d="M22.3333 22.6667C16.0741 22.6667 11 17.5926 11 11.3333C11 5.07411 16.0741 0 22.3333 0C28.5926 0 33.6667 5.07411 33.6667 11.3333C33.6597 17.5897 28.5897 22.6597 22.3333 22.6667ZM22.3333 1.33333C16.8105 1.33333 12.3333 5.81049 12.3333 11.3333C12.3333 16.8562 16.8105 21.3333 22.3333 21.3333C27.8562 21.3333 32.3333 16.8562 32.3333 11.3333C32.3272 5.81303 27.8536 1.33947 22.3333 1.33333Z"/>
<path d="M26.2698 18.6665H17.068C16.6675 18.6667 16.2878 18.4882 16.0322 18.1798C15.7852 17.8847 15.6823 17.495 15.7516 17.1164C16.2294 15.0082 17.8745 13.3612 19.9821 12.881C20.3384 12.7883 20.7025 13.0019 20.7952 13.3582C20.888 13.7146 20.6743 14.0786 20.318 14.1714C18.7104 14.521 17.4452 15.7607 17.0628 17.3608L26.2698 17.3332C26.0979 16.5005 25.6519 15.7494 25.0032 15.1998C24.925 15.1332 24.8385 15.0654 24.7519 14.9974C24.4624 14.7698 24.4123 14.3506 24.6399 14.0612C24.8675 13.7717 25.2866 13.7216 25.5761 13.9492C25.6757 14.0276 25.7753 14.1068 25.8761 14.192C26.757 14.9439 27.3594 15.9701 27.5864 17.1058C27.6582 17.4872 27.5554 17.8807 27.3064 18.1784C27.0512 18.4878 26.6709 18.6669 26.2698 18.6665Z"/>
<path d="M23.6741 15.3318C21.1292 15.3353 18.8045 13.8893 17.6826 11.605C16.5607 9.32074 16.8376 6.59698 18.3961 4.58516C18.6323 4.28139 18.9874 4.0936 19.3714 4.06949C19.7547 4.04327 20.1304 4.18514 20.4007 4.45816L27.8771 11.9338C28.1482 12.206 28.2894 12.5815 28.265 12.965C28.2406 13.3484 28.0529 13.7029 27.7495 13.9386C26.5838 14.8434 25.1497 15.3337 23.6741 15.3318ZM19.4578 5.40043C17.8102 7.52143 17.9978 10.5369 19.8955 12.4374C21.7932 14.3379 24.8084 14.5299 26.9318 12.8854L27.4057 12.405L26.9344 12.8764L19.4578 5.40043Z"/>
<path d="M26.6522 8.00177C25.7154 8.00162 24.8709 7.43723 24.5124 6.57171C24.1538 5.70618 24.3519 4.70992 25.0142 4.04737C25.9307 3.17171 27.3738 3.17171 28.2902 4.04737C28.9526 4.70992 29.1506 5.70618 28.7921 6.57171C28.4336 7.43723 27.5891 8.00162 26.6522 8.00177ZM26.6522 4.70177C26.2546 4.7018 25.8961 4.94133 25.7439 5.3087C25.5917 5.67606 25.6758 6.09893 25.9569 6.38017C26.3461 6.75132 26.9582 6.75147 27.3476 6.3805V6.37983C27.6288 6.09869 27.7129 5.67579 27.5607 5.30843C27.4085 4.94106 27.0499 4.70161 26.6522 4.70177Z"/>
<path d="M23.6665 9.33354C23.3969 9.33348 23.1539 9.17105 23.0508 8.92198C22.9476 8.6729 23.0046 8.3862 23.1952 8.19554L25.0085 6.38221C25.1761 6.20951 25.4236 6.14046 25.6563 6.20155C25.889 6.26263 26.0708 6.44436 26.1319 6.67707C26.193 6.90977 26.124 7.15735 25.9513 7.32487L24.1379 9.13821C24.0131 9.26346 23.8434 9.33376 23.6665 9.33354Z"/>
</svg>
