<svg xmlns="http://www.w3.org/2000/svg" viewBox="0 0 12 17">
<path d="M6.00001 8.50001C6.79113 8.50001 7.56449 8.26542 8.22229 7.82589C8.88009 7.38636 9.39278 6.76165 9.69553 6.03074C9.99828 5.29984 10.0775 4.49557 9.92315 3.71965C9.76881 2.94372 9.38785 2.23099 8.82844 1.67158C8.26903 1.11217 7.55629 0.731202 6.78037 0.576861C6.00444 0.42252 5.20018 0.501733 4.46927 0.804484C3.73836 1.10724 3.11365 1.61993 2.67412 2.27772C2.2346 2.93552 2 3.70888 2 4.50001C2.00106 5.56055 2.42283 6.57735 3.17274 7.32727C3.92266 8.07719 4.93946 8.49895 6.00001 8.50001ZM6.00001 1.83334C6.52742 1.83334 7.043 1.98973 7.48153 2.28275C7.92006 2.57577 8.26185 2.99225 8.46369 3.47952C8.66552 3.96679 8.71833 4.50297 8.61544 5.02025C8.51254 5.53753 8.25857 6.01269 7.88563 6.38563C7.51269 6.75857 7.03753 7.01255 6.52025 7.11544C6.00296 7.21833 5.46679 7.16552 4.97952 6.96369C4.49224 6.76186 4.07577 6.42006 3.78275 5.98153C3.48973 5.543 3.33334 5.02743 3.33334 4.50001C3.33334 3.79276 3.61429 3.11448 4.11438 2.61439C4.61448 2.11429 5.29276 1.83334 6.00001 1.83334Z" />
<path d="M6.00001 9.83301C4.40925 9.83477 2.88415 10.4675 1.75931 11.5923C0.634473 12.7172 0.00176457 14.2423 0 15.833C0 16.0098 0.070238 16.1794 0.195262 16.3044C0.320287 16.4294 0.489856 16.4997 0.666668 16.4997C0.843479 16.4997 1.01305 16.4294 1.13807 16.3044C1.2631 16.1794 1.33334 16.0098 1.33334 15.833C1.33334 14.5953 1.825 13.4084 2.70017 12.5332C3.57534 11.658 4.76233 11.1663 6.00001 11.1663C7.23769 11.1663 8.42467 11.658 9.29984 12.5332C10.175 13.4084 10.6667 14.5953 10.6667 15.833C10.6667 16.0098 10.7369 16.1794 10.8619 16.3044C10.987 16.4294 11.1565 16.4997 11.3334 16.4997C11.5102 16.4997 11.6797 16.4294 11.8048 16.3044C11.9298 16.1794 12 16.0098 12 15.833C11.9983 14.2423 11.3655 12.7172 10.2407 11.5923C9.11587 10.4675 7.59077 9.83477 6.00001 9.83301Z"/>
</svg>
