<svg xmlns="http://www.w3.org/2000/svg" viewBox="0 0 39 40">
<path d="M3.58491 39.9939C2.51343 40.0836 1.51597 39.4221 1.14742 38.3774C-0.0061327 35.3241 5.22811 29.7426 8.45098 26.6869C8.71339 26.4381 9.1211 26.4565 9.36161 26.728C9.60212 26.9994 9.58436 27.4212 9.32194 27.67C4.4754 32.2651 1.7378 36.2765 2.34699 37.8894C2.73463 38.8999 3.79506 38.7976 5.49491 38.2791C6.11796 38.0919 6.73347 37.8885 7.34962 37.685C8.63838 37.2329 9.95022 36.8546 11.2792 36.5517C13.6809 36.0731 16.1283 35.8853 18.572 35.9918L19.516 35.9985C19.5413 35.9985 19.5665 36.0001 19.5916 36.0033C19.6429 35.9969 19.6949 35.9969 19.7462 36.0033C19.7709 36.0001 19.7957 35.9985 19.8206 35.9985L20.7646 35.9918C23.2085 35.8852 25.6561 36.0732 28.0581 36.5518C29.3868 36.8546 30.6985 37.233 31.987 37.6851C32.6031 37.8886 33.2187 38.0918 33.8392 38.2785C35.5428 38.799 36.6032 38.9003 36.9909 37.8869C37.5988 36.2769 34.8612 32.2655 30.0147 27.6704C29.7523 27.4216 29.7345 26.9998 29.975 26.7284C30.2155 26.4569 30.6232 26.4385 30.8856 26.6873C34.1085 29.743 39.3427 35.3244 38.1904 38.3749C37.2911 40.7205 34.7165 39.9363 33.4767 39.5581C32.8486 39.3693 32.2218 39.1626 31.5949 38.9556C30.3512 38.519 29.0854 38.153 27.8031 37.8592C25.4884 37.3968 23.1292 37.2178 20.774 37.3259L19.8577 37.3318C19.7315 37.3357 19.6051 37.3357 19.4789 37.3318L18.5626 37.3251C16.2076 37.2174 13.8486 37.3964 11.5341 37.8585C10.2516 38.1524 8.9856 38.5185 7.7417 38.9552C7.11485 39.1622 6.48806 39.3689 5.85741 39.5587C5.12336 39.8132 4.35838 39.9597 3.58491 39.9939Z"/>
<path d="M19.6674 32.6669C12.464 32.6666 6.21433 27.5221 4.59608 20.2607C2.97784 12.9993 6.41947 5.54358 12.8958 2.28081C13.1035 2.1703 13.3528 2.18477 13.5473 2.31861C13.7418 2.45245 13.8511 2.6847 13.8329 2.92564C13.8147 3.16657 13.6719 3.37845 13.4596 3.47941C7.16029 6.65265 4.04613 14.1101 6.13067 21.03C8.21521 27.9499 14.8733 32.257 21.8001 31.1665C28.7268 30.076 33.8449 23.915 33.8452 16.6669C33.8691 11.0489 30.7679 5.91753 25.8753 3.47941C25.663 3.37845 25.5202 3.16657 25.502 2.92564C25.4838 2.6847 25.593 2.45245 25.7876 2.31861C25.9821 2.18477 26.2314 2.1703 26.4391 2.28081C32.9154 5.54358 36.3571 12.9993 34.7388 20.2607C33.1206 27.5221 26.8709 32.6666 19.6674 32.6669Z"/>
<path d="M14.4819 5.79393C14.3131 5.7942 14.1459 5.76049 13.9895 5.69467C13.6673 5.55979 13.4127 5.29395 13.2853 4.95933L12.5681 3.09733C12.3053 2.43219 12.6033 1.67157 13.2396 1.38347C17.3391 -0.461156 21.9951 -0.461156 26.0945 1.38347C26.7306 1.67158 27.0287 2.43163 26.7667 3.0968L26.0492 4.95933C25.9218 5.29395 25.6672 5.55979 25.345 5.69467C25.0137 5.83354 24.6421 5.82719 24.3154 5.67707C21.3521 4.33593 17.982 4.33593 15.0188 5.67707C14.8496 5.75417 14.6668 5.79397 14.4819 5.79393ZM19.6671 1.33333C17.6323 1.32958 15.619 1.76276 13.7544 2.60547L14.4819 4.46547C17.7791 2.95835 21.5371 2.9554 24.8365 4.45733L24.8529 4.464L25.569 2.604C23.7082 1.76147 21.6983 1.32874 19.6671 1.33333Z"/>
<path d="M19.6668 25.9987C14.6839 25.9987 10.6445 21.82 10.6445 16.6654C10.6445 11.5107 14.6839 7.33203 19.6668 7.33203C24.6496 7.33203 28.689 11.5107 28.689 16.6654C28.6834 21.8176 24.6473 25.9929 19.6668 25.9987ZM19.6668 8.66536C15.3958 8.66536 11.9334 12.2471 11.9334 16.6654C11.9334 21.0836 15.3958 24.6654 19.6668 24.6654C23.9378 24.6654 27.4001 21.0836 27.4001 16.6654C27.3953 12.2491 23.9358 8.67029 19.6668 8.66536Z"/>
<path d="M19.6672 22.668C16.4639 22.668 13.8672 19.9817 13.8672 16.668C13.8672 13.3543 16.4639 10.668 19.6672 10.668C22.8704 10.668 25.4672 13.3543 25.4672 16.668C25.4636 19.9802 22.869 22.6643 19.6672 22.668ZM19.6672 12.0013C17.1758 12.0013 15.1561 14.0906 15.1561 16.668C15.1561 19.2453 17.1758 21.3346 19.6672 21.3346C22.1586 21.3346 24.1783 19.2453 24.1783 16.668C24.1754 14.0919 22.1574 12.0043 19.6672 12.0013Z"/>
<path d="M21.2789 18C19.6773 18 18.3789 16.6569 18.3789 15C18.3789 13.3431 19.6773 12 21.2789 12C22.8805 12 24.1789 13.3431 24.1789 15C24.1771 16.6561 22.8798 17.9982 21.2789 18ZM21.2789 13.3333C20.3891 13.3333 19.6678 14.0795 19.6678 15C19.6678 15.9205 20.3891 16.6667 21.2789 16.6667C22.1687 16.6667 22.89 15.9205 22.89 15C22.8891 14.0799 22.1683 13.3343 21.2789 13.3333Z"/>
<path d="M5.20084 20.6419C4.85786 20.6417 4.57505 20.3637 4.55745 20.0094C4.53985 19.6551 4.79362 19.3485 5.13479 19.3121C6.44029 19.1622 7.42737 18.0196 7.4251 16.6608C7.42284 15.302 6.43196 14.1629 5.12596 14.0178C4.95606 13.9989 4.80037 13.911 4.69319 13.7733C4.58601 13.6356 4.53613 13.4595 4.55453 13.2838C4.57072 13.107 4.65524 12.9445 4.7889 12.8331C4.92257 12.7218 5.09405 12.671 5.26445 12.6923C7.22569 12.9108 8.7127 14.6229 8.71366 16.6635C8.71462 18.7041 7.22923 20.4177 5.26819 20.6383C5.24582 20.6407 5.22334 20.6419 5.20084 20.6419Z"/>
<path d="M34.1378 20.6403C34.1153 20.6403 34.0928 20.6391 34.0705 20.6367C32.1094 20.4161 30.624 18.7025 30.625 16.6619C30.626 14.6213 32.113 12.9092 34.0742 12.6907C34.4257 12.6554 34.7392 12.9194 34.7771 13.2826C34.8151 13.6458 34.5634 13.973 34.2127 14.0162C32.9067 14.1613 31.9158 15.3004 31.9136 16.6592C31.9113 18.018 32.8984 19.1607 34.2039 19.3105C34.545 19.3469 34.7988 19.6535 34.7812 20.0078C34.7636 20.3621 34.4808 20.6401 34.1378 20.6403Z"/>
</svg>
