<svg xmlns="http://www.w3.org/2000/svg" viewBox="0 0 65 65">
<path d="M61.75 58.5H45.5C44.9017 58.5 44.4167 58.015 44.4167 57.4167C44.4167 56.8184 44.9017 56.3333 45.5 56.3333H61.75C62.3481 56.3328 62.8328 55.8481 62.8333 55.25V29.25C62.8328 28.6519 62.3481 28.1672 61.75 28.1667H3.25C2.65201 28.1674 2.16744 28.652 2.16667 29.25V55.25C2.16744 55.848 2.65201 56.3326 3.25 56.3333H19.5C20.0983 56.3333 20.5833 56.8184 20.5833 57.4167C20.5833 58.015 20.0983 58.5 19.5 58.5H3.25C1.45589 58.498 0.00197027 57.0441 0 55.25V29.25C0.00197027 27.4559 1.45589 26.002 3.25 26H61.75C63.5441 26.002 64.998 27.4559 65 29.25V55.25C64.998 57.0441 63.5441 58.498 61.75 58.5Z"/>
<path d="M50.9167 58.4987H49.8333C49.235 58.4987 48.75 58.0137 48.75 57.4154C48.75 56.8171 49.235 56.332 49.8333 56.332V42.2487H15.1667V56.332C15.765 56.332 16.25 56.8171 16.25 57.4154C16.25 58.0137 15.765 58.4987 15.1667 58.4987H14.0833C13.485 58.4987 13 58.0137 13 57.4154V42.2487C13.0012 41.0526 13.9705 40.0832 15.1667 40.082H49.8333C51.0294 40.0834 51.9986 41.0527 52 42.2487V57.4154C52 58.0137 51.515 58.4987 50.9167 58.4987Z"/>
<path d="M59.5833 43.3346C60.1816 43.3346 60.6667 42.8496 60.6667 42.2513C60.6667 41.653 60.1816 41.168 59.5833 41.168C58.985 41.168 58.5 41.653 58.5 42.2513C58.5 42.8496 58.985 43.3346 59.5833 43.3346Z"/>
<path d="M59.5833 47.6667C60.1816 47.6667 60.6667 47.1816 60.6667 46.5833C60.6667 45.985 60.1816 45.5 59.5833 45.5C58.985 45.5 58.5 45.985 58.5 46.5833C58.5 47.1816 58.985 47.6667 59.5833 47.6667Z"/>
<path d="M59.5833 51.9987C60.1816 51.9987 60.6667 51.5137 60.6667 50.9154C60.6667 50.3171 60.1816 49.832 59.5833 49.832C58.985 49.832 58.5 50.3171 58.5 50.9154C58.5 51.5137 58.985 51.9987 59.5833 51.9987Z"/>
<path d="M44.4167 28.168H20.5833C19.985 28.168 19.5 27.6829 19.5 27.0846V20.5846C19.5012 19.3885 20.4705 18.4192 21.6667 18.418H43.3333C44.5295 18.4192 45.4988 19.3885 45.5 20.5846V27.0846C45.5 27.6829 45.015 28.168 44.4167 28.168ZM21.6667 26.0013H43.3333V20.5846H21.6667V26.0013Z"/>
<path d="M5.41927 54.1654C4.82096 54.1654 4.33594 53.6803 4.33594 53.082V37.9154C4.33594 37.3171 4.82096 36.832 5.41927 36.832C6.01758 36.832 6.5026 37.3171 6.5026 37.9154V53.082C6.5026 53.6803 6.01758 54.1654 5.41927 54.1654Z"/>
<path d="M44.4141 64.9987H20.5807C19.3846 64.9975 18.4153 64.0282 18.4141 62.832V51.9987C18.4153 50.8026 19.3846 49.8332 20.5807 49.832H44.4141C45.6102 49.8332 46.5795 50.8026 46.5807 51.9987V62.832C46.5795 64.0282 45.6102 64.9975 44.4141 64.9987ZM20.5807 51.9987H20.5791L20.5807 62.832H44.4141V51.9987H20.5807Z"/>
<path d="M50.9167 28.168H14.0833C13.485 28.168 13 27.6829 13 27.0846V23.8346C13.0012 22.6385 13.9705 21.6692 15.1667 21.668H20.5833C21.1816 21.668 21.6667 22.153 21.6667 22.7513C21.6667 23.3496 21.1816 23.8346 20.5833 23.8346H15.1667V26.0013H49.8333V23.8346H44.4167C43.8184 23.8346 43.3333 23.3496 43.3333 22.7513C43.3333 22.153 43.8184 21.668 44.4167 21.668H49.8333C51.0294 21.6693 51.9986 22.6386 52 23.8346V27.0846C52 27.6829 51.515 28.168 50.9167 28.168Z"/>
<path d="M32.4993 37.916H15.0251C10.6834 37.9028 6.58717 35.9002 3.91015 32.4818L0.790146 28.4627C0.423233 27.99 0.508961 27.3094 0.981625 26.9425C1.45429 26.5756 2.1349 26.6613 2.50181 27.134L5.62181 31.1531C7.88693 34.0445 11.3522 35.7382 15.0251 35.7493H32.4993C33.0976 35.7493 33.5826 36.2343 33.5826 36.8326C33.5826 37.4309 33.0976 37.916 32.4993 37.916Z"/>
<path d="M49.9716 37.9165H32.4974C31.8991 37.9165 31.4141 37.4315 31.4141 36.8332C31.4141 36.2349 31.8991 35.7498 32.4974 35.7498H49.9716C53.6449 35.7392 57.1105 34.0448 59.3749 31.1525L62.4949 27.134C62.8618 26.6613 63.5424 26.5756 64.0151 26.9425C64.4877 27.3094 64.5735 27.99 64.2066 28.4627L61.0856 32.4818C58.4091 35.9003 54.3132 37.9031 49.9716 37.9165Z"/>
<path d="M41.1667 56.3346H23.8333C23.235 56.3346 22.75 55.8496 22.75 55.2513C22.75 54.653 23.235 54.168 23.8333 54.168H41.1667C41.765 54.168 42.25 54.653 42.25 55.2513C42.25 55.8496 41.765 56.3346 41.1667 56.3346Z"/>
<path d="M41.1667 60.6667H23.8333C23.235 60.6667 22.75 60.1816 22.75 59.5833C22.75 58.985 23.235 58.5 23.8333 58.5H41.1667C41.765 58.5 42.25 58.985 42.25 59.5833C42.25 60.1816 41.765 60.6667 41.1667 60.6667Z"/>
<path d="M50.9167 46.5846H14.0833C13.485 46.5846 13 46.0996 13 45.5013C13 44.903 13.485 44.418 14.0833 44.418H50.9167C51.515 44.418 52 44.903 52 45.5013C52 46.0996 51.515 46.5846 50.9167 46.5846Z"/>
<path d="M45.4983 10.8466C45.0605 10.8466 44.6657 10.5833 44.4975 10.1791C42.4846 5.3285 37.7494 2.16679 32.4978 2.16679C27.2461 2.16679 22.5109 5.3285 20.498 10.1791C20.2681 10.7315 19.6339 10.9929 19.0814 10.763C18.529 10.5331 18.2676 9.89884 18.4975 9.34643C20.8467 3.688 26.3711 0 32.4978 0C38.6245 0 44.1488 3.688 46.498 9.34643C46.6369 9.68076 46.5998 10.0624 46.399 10.3637C46.1983 10.6649 45.8604 10.8461 45.4983 10.8466Z"/>
<path d="M40.7733 12.8025C40.3359 12.8025 39.9413 12.5396 39.7729 12.1359C38.5539 9.19629 35.6846 7.27996 32.5023 7.27996C29.3199 7.27996 26.4506 9.19629 25.2316 12.1359C25.0825 12.4931 24.7541 12.7436 24.3703 12.7931C23.9864 12.8425 23.6053 12.6834 23.3705 12.3757C23.1357 12.068 23.083 11.6584 23.2321 11.3012C24.7879 7.5549 28.4457 5.11328 32.5023 5.11328C36.5588 5.11328 40.2166 7.5549 41.7724 11.3012C41.9116 11.6356 41.8746 12.0173 41.674 12.3188C41.4733 12.6203 41.1354 12.8017 40.7733 12.8025Z"/>
<path d="M36.0411 14.7589C35.6054 14.7588 35.2121 14.498 35.0425 14.0966C34.6184 13.0661 33.6142 12.3934 32.4997 12.3934C31.3853 12.3934 30.381 13.0661 29.9569 14.0966C29.7241 14.6479 29.0885 14.906 28.5372 14.6732C27.986 14.4404 27.7278 13.8047 27.9607 13.2535C28.7238 11.4206 30.5144 10.2266 32.4998 10.2266C34.4852 10.2266 36.2758 11.4206 37.039 13.2535C37.1802 13.5881 37.1446 13.9712 36.944 14.2739C36.7434 14.5767 36.4043 14.7585 36.0411 14.7589Z"/>
<path d="M32.4974 16.8424C33.0957 16.8424 33.5807 16.3574 33.5807 15.7591C33.5807 15.1608 33.0957 14.6758 32.4974 14.6758C31.8991 14.6758 31.4141 15.1608 31.4141 15.7591C31.4141 16.3574 31.8991 16.8424 32.4974 16.8424Z"/>
<path d="M23.8333 33.582C23.235 33.582 22.75 33.097 22.75 32.4987V31.4154C22.75 30.8171 23.235 30.332 23.8333 30.332C24.4316 30.332 24.9167 30.8171 24.9167 31.4154V32.4987C24.9167 33.097 24.4316 33.582 23.8333 33.582Z"/>
<path d="M27.0833 33.582C26.485 33.582 26 33.097 26 32.4987V31.4154C26 30.8171 26.485 30.332 27.0833 30.332C27.6816 30.332 28.1667 30.8171 28.1667 31.4154V32.4987C28.1667 33.097 27.6816 33.582 27.0833 33.582Z"/>
<path d="M37.9193 33.582C37.321 33.582 36.8359 33.097 36.8359 32.4987V31.4154C36.8359 30.8171 37.321 30.332 37.9193 30.332C38.5176 30.332 39.0026 30.8171 39.0026 31.4154V32.4987C39.0026 33.097 38.5176 33.582 37.9193 33.582Z"/>
<path d="M41.1693 33.582C40.571 33.582 40.0859 33.097 40.0859 32.4987V31.4154C40.0859 30.8171 40.571 30.332 41.1693 30.332C41.7676 30.332 42.2526 30.8171 42.2526 31.4154V32.4987C42.2526 33.097 41.7676 33.582 41.1693 33.582Z"/>
</svg>
