<svg xmlns="http://www.w3.org/2000/svg" viewBox="0 0 65 65">
<path d="M60.6667 60.668H4.33333C1.94114 60.6655 0.00250785 58.7268 0 56.3346V45.5013C0.00250785 43.1091 1.94114 41.1705 4.33333 41.168H60.6667C63.0589 41.1705 64.9975 43.1091 65 45.5013V56.3346C64.9975 58.7268 63.0589 60.6655 60.6667 60.668ZM4.33333 43.3346C3.13729 43.336 2.16804 44.3053 2.16667 45.5013V56.3346C2.16804 57.5307 3.13729 58.4999 4.33333 58.5013H60.6667C61.8627 58.4999 62.832 57.5307 62.8333 56.3346V45.5013C62.832 44.3053 61.8627 43.336 60.6667 43.3346H4.33333Z"/>
<path d="M18.4141 65H8.66406C6.86995 64.998 5.41603 63.5441 5.41406 61.75V59.5833C5.41406 58.985 5.89909 58.5 6.4974 58.5H20.5807C21.179 58.5 21.6641 58.985 21.6641 59.5833V61.75C21.6621 63.5441 20.2082 64.998 18.4141 65ZM7.58073 60.6667V61.75C7.58127 62.3481 8.06598 62.8328 8.66406 62.8333H18.4141C19.0121 62.8328 19.4969 62.3481 19.4974 61.75V60.6667H7.58073Z"/>
<path d="M56.3359 65H46.5859C44.7918 64.998 43.3379 63.5441 43.3359 61.75V59.5833C43.3359 58.985 43.821 58.5 44.4193 58.5H58.5026C59.1009 58.5 59.5859 58.985 59.5859 59.5833V61.75C59.584 63.5441 58.13 64.998 56.3359 65ZM45.5026 60.6667V61.75C45.5031 62.3481 45.9879 62.8328 46.5859 62.8333H56.3359C56.934 62.8328 57.4187 62.3481 57.4193 61.75V60.6667H45.5026Z"/>
<path d="M63.9167 55.2487H1.08333C0.485025 55.2487 0 54.7637 0 54.1654V47.6654C0 47.0671 0.485025 46.582 1.08333 46.582H63.9167C64.515 46.582 65 47.0671 65 47.6654V54.1654C65 54.7637 64.515 55.2487 63.9167 55.2487ZM2.16667 53.082H62.8333V48.7487H2.16667V53.082Z"/>
<path d="M49.8333 51.9987C50.4316 51.9987 50.9167 51.5137 50.9167 50.9154C50.9167 50.3171 50.4316 49.832 49.8333 49.832C49.235 49.832 48.75 50.3171 48.75 50.9154C48.75 51.5137 49.235 51.9987 49.8333 51.9987Z"/>
<path d="M6.4974 51.9987C7.0957 51.9987 7.58073 51.5137 7.58073 50.9154C7.58073 50.3171 7.0957 49.832 6.4974 49.832C5.89909 49.832 5.41406 50.3171 5.41406 50.9154C5.41406 51.5137 5.89909 51.9987 6.4974 51.9987Z"/>
<path d="M54.1693 51.9987C54.7676 51.9987 55.2526 51.5137 55.2526 50.9154C55.2526 50.3171 54.7676 49.832 54.1693 49.832C53.571 49.832 53.0859 50.3171 53.0859 50.9154C53.0859 51.5137 53.571 51.9987 54.1693 51.9987Z"/>
<path d="M58.4974 51.9987C59.0957 51.9987 59.5807 51.5137 59.5807 50.9154C59.5807 50.3171 59.0957 49.832 58.4974 49.832C57.8991 49.832 57.4141 50.3171 57.4141 50.9154C57.4141 51.5137 57.8991 51.9987 58.4974 51.9987Z"/>
<path d="M11.9193 43.332H5.41927C4.82096 43.332 4.33594 42.847 4.33594 42.2487V32.4987C4.33731 31.3027 5.30656 30.3334 6.5026 30.332H10.8359C12.032 30.3334 13.0012 31.3027 13.0026 32.4987V42.2487C13.0026 42.847 12.5176 43.332 11.9193 43.332ZM6.5026 41.1654H10.8359V32.4987H6.5026V41.1654Z"/>
<path d="M10.8307 32.5H6.4974C5.89909 32.5 5.41406 32.015 5.41406 31.4167V3.25C5.41406 1.45507 6.86914 0 8.66406 0C10.459 0 11.9141 1.45507 11.9141 3.25V31.4167C11.9141 32.015 11.429 32.5 10.8307 32.5ZM7.58073 30.3333H9.7474V3.25C9.7474 2.65169 9.26237 2.16667 8.66406 2.16667C8.06575 2.16667 7.58073 2.65169 7.58073 3.25V30.3333Z"/>
<path d="M59.5833 43.332H53.0833C52.485 43.332 52 42.847 52 42.2487V32.4987C52.0014 31.3027 52.9706 30.3334 54.1667 30.332H58.5C59.696 30.3334 60.6653 31.3027 60.6667 32.4987V42.2487C60.6667 42.847 60.1816 43.332 59.5833 43.332ZM54.1667 41.1654H58.5V32.4987H54.1667V41.1654Z"/>
<path d="M58.5026 32.5H54.1693C53.571 32.5 53.0859 32.015 53.0859 31.4167V3.25C53.0859 1.45507 54.541 0 56.3359 0C58.1309 0 59.5859 1.45507 59.5859 3.25V31.4167C59.5859 32.015 59.1009 32.5 58.5026 32.5ZM55.2526 30.3333H57.4193V3.25C57.4193 2.65169 56.9342 2.16667 56.3359 2.16667C55.7376 2.16667 55.2526 2.65169 55.2526 3.25V30.3333Z"/>
<path d="M49.8306 22.4387C49.393 22.4388 48.9984 22.1753 48.8308 21.7711C46.0906 15.1691 39.6454 10.8659 32.4973 10.8659C25.3491 10.8659 18.9039 15.1691 16.1637 21.7711C16.0215 22.1379 15.6916 22.3988 15.3019 22.4527C14.9122 22.5065 14.524 22.3448 14.2876 22.0303C14.0513 21.7158 14.004 21.2979 14.1641 20.9386C17.2402 13.5288 24.4743 8.69922 32.4973 8.69922C40.5202 8.69922 47.7543 13.5288 50.8304 20.9386C50.9693 21.2729 50.9321 21.6545 50.7313 21.9558C50.5305 22.257 50.1926 22.4382 49.8306 22.4387Z"/>
<path d="M43.5274 24.6948C43.0901 24.6946 42.6958 24.4315 42.5277 24.0278C40.8462 19.974 36.8892 17.3314 32.5005 17.3314C28.1118 17.3314 24.1548 19.974 22.4733 24.0278C22.2387 24.573 21.6089 24.828 21.061 24.5994C20.5132 24.3708 20.2513 23.7439 20.4738 23.1936C22.4915 18.3325 27.2373 15.1641 32.5005 15.1641C37.7637 15.1641 42.5095 18.3325 44.5272 23.1936C44.666 23.528 44.6289 23.9096 44.4281 24.211C44.2274 24.5123 43.8895 24.694 43.5274 24.6948Z"/>
<path d="M37.2231 27.082C36.7877 27.082 36.3946 26.8211 36.2255 26.4198C35.603 24.912 34.1328 23.9283 32.5016 23.9283C30.8703 23.9283 29.4001 24.912 28.7776 26.4198C28.6326 26.7847 28.3015 27.0425 27.9123 27.0938C27.523 27.145 27.1365 26.9817 26.902 26.6668C26.6675 26.3519 26.6217 25.9348 26.7823 25.5765C27.7435 23.2667 29.9997 21.7617 32.5016 21.7617C35.0034 21.7617 37.2597 23.2667 38.2208 25.5765C38.3619 25.9111 38.3262 26.2941 38.1256 26.5969C37.9251 26.8996 37.5863 27.0815 37.2231 27.082Z"/>
<path d="M32.4974 29.2487C33.0957 29.2487 33.5807 28.7637 33.5807 28.1654C33.5807 27.5671 33.0957 27.082 32.4974 27.082C31.8991 27.082 31.4141 27.5671 31.4141 28.1654C31.4141 28.7637 31.8991 29.2487 32.4974 29.2487Z"/>
</svg>
