<svg xmlns="http://www.w3.org/2000/svg" viewBox="0 0 40 40">
<path d="M30.0002 37.332H0.666875C0.445596 37.3321 0.238703 37.2224 0.11464 37.0391C-0.00942248 36.8559 -0.034486 36.6231 0.0477412 36.4176L2.71441 29.751C2.81588 29.498 3.06098 29.3322 3.33354 29.332H27.3335C27.6061 29.3322 27.8512 29.498 27.9527 29.751L30.6193 36.4176C30.7016 36.6231 30.6765 36.8559 30.5524 37.0391C30.4284 37.2224 30.2215 37.3321 30.0002 37.332ZM1.65161 35.9987H29.0155L26.8821 30.6654H3.78501L1.65161 35.9987Z"/>
<path d="M18.6692 37.332H12.0025C11.7942 37.332 11.5979 37.2346 11.4718 37.0688C11.3458 36.9029 11.3045 36.6877 11.3603 36.487L11.9654 34.3086C12.1266 33.7322 12.6514 33.3332 13.2499 33.332H17.4218C18.0205 33.3333 18.5454 33.7324 18.7067 34.3089L19.3115 36.487C19.3672 36.6877 19.3259 36.9029 19.1999 37.0688C19.0738 37.2346 18.8775 37.332 18.6692 37.332ZM12.8795 35.9987H17.7923L17.4218 34.6654H13.2499L12.8795 35.9987Z"/>
<path d="M29.3333 40H1.33333C0.597258 39.9993 0.000734973 39.4027 0 38.6667V36.6667C0 36.2985 0.298477 36 0.666667 36C1.03486 36 1.33333 36.2985 1.33333 36.6667V38.6667H29.3333V36.6667C29.3333 36.2985 29.6318 36 30 36C30.3682 36 30.6667 36.2985 30.6667 36.6667V38.6667C30.6659 39.4027 30.0694 39.9993 29.3333 40Z"/>
<path d="M27.3307 30.668H3.33073C2.96254 30.668 2.66406 30.3695 2.66406 30.0013V16.0013C2.6648 15.2652 3.26132 14.6687 3.9974 14.668H26.6641C27.4001 14.6687 27.9967 15.2652 27.9974 16.0013V30.0013C27.9974 30.3695 27.6989 30.668 27.3307 30.668ZM3.9974 29.3346H26.6641V16.0013H3.9974V29.3346Z"/>
<path d="M37.9974 29.3333H27.3307C26.9625 29.3333 26.6641 29.0349 26.6641 28.6667C26.6641 28.2985 26.9625 28 27.3307 28H37.9974C38.3654 27.9995 38.6636 27.7013 38.6641 27.3333V2C38.6636 1.63201 38.3654 1.33381 37.9974 1.33333H20.6641C20.2961 1.33381 19.9979 1.63201 19.9974 2V15.3333C19.9974 15.7015 19.6989 16 19.3307 16C18.9625 16 18.6641 15.7015 18.6641 15.3333V2C18.6653 0.895933 19.56 0.00121247 20.6641 0H37.9974C39.1015 0.00121247 39.9962 0.895933 39.9974 2V27.3333C39.9962 28.4374 39.1015 29.3321 37.9974 29.3333Z"/>
<path d="M29.3333 13.3346C26.3878 13.3346 24 10.9468 24 8.0013C24 5.05578 26.3878 2.66797 29.3333 2.66797C32.2789 2.66797 34.6667 5.05578 34.6667 8.0013C34.6633 10.9454 32.2775 13.3313 29.3333 13.3346ZM29.3333 4.0013C27.7155 4.0013 26.2569 4.97587 25.6378 6.47057C25.0187 7.96527 25.3609 9.68574 26.5049 10.8297C27.6489 11.9737 29.3694 12.3159 30.8641 11.6968C32.3588 11.0777 33.3333 9.61915 33.3333 8.0013C33.3309 5.79317 31.5415 4.00373 29.3333 4.0013Z"/>
<path d="M29.3307 10.6654C27.858 10.6654 26.6641 9.47146 26.6641 7.9987C26.6641 6.52594 27.858 5.33203 29.3307 5.33203C30.8035 5.33203 31.9974 6.52594 31.9974 7.9987C31.9957 9.47077 30.8028 10.6637 29.3307 10.6654ZM29.3307 6.66536C28.5943 6.66536 27.9974 7.26232 27.9974 7.9987C27.9974 8.73508 28.5943 9.33203 29.3307 9.33203C30.0671 9.33203 30.6641 8.73508 30.6641 7.9987C30.6633 7.26262 30.0668 6.6661 29.3307 6.66536Z"/>
<path d="M29.3332 26.6667C28.5867 26.6673 27.8446 26.5535 27.1326 26.3292C26.7845 26.2162 26.5927 25.8436 26.7028 25.4946C26.8128 25.1455 27.1838 24.9505 27.5337 25.0577C30.4456 25.977 33.5835 24.5633 34.8241 21.7732C36.0648 18.9831 35.0126 15.7062 32.3796 14.1599C29.7466 12.6135 26.3722 13.2908 24.5398 15.7334C24.3969 15.9239 24.1632 16.0238 23.9268 15.9953C23.6903 15.9668 23.487 15.8143 23.3934 15.5953C23.2999 15.3762 23.3303 15.1239 23.4732 14.9334C24.8491 13.0796 27.0246 11.9906 29.3332 12.0001C33.3833 12.0001 36.6665 15.2833 36.6665 19.3334C36.6665 23.3835 33.3833 26.6667 29.3332 26.6667Z"/>
<path d="M29.3329 24.0013C28.5106 24.0034 27.7028 23.7849 26.9937 23.3685C26.6799 23.1798 26.5771 22.7733 26.7634 22.458C26.9497 22.1428 27.3554 22.0368 27.6721 22.2207C28.1749 22.5177 28.749 22.6723 29.3329 22.668C31.1738 22.668 32.6662 21.1756 32.6662 19.3346C32.6662 17.4937 31.1738 16.0013 29.3329 16.0013C28.7443 16.0001 28.1662 16.1569 27.6587 16.4551C27.4536 16.5785 27.198 16.5824 26.9892 16.4654C26.7803 16.3484 26.6503 16.1283 26.6485 15.8889C26.6466 15.6495 26.7733 15.4275 26.9803 15.3073C27.6932 14.8876 28.5056 14.6668 29.3329 14.668C31.9102 14.668 33.9995 16.7573 33.9995 19.3346C33.9995 21.912 31.9102 24.0013 29.3329 24.0013Z"/>
<path d="M22.0026 4.0013C22.3708 4.0013 22.6693 3.70283 22.6693 3.33464C22.6693 2.96645 22.3708 2.66797 22.0026 2.66797C21.6344 2.66797 21.3359 2.96645 21.3359 3.33464C21.3359 3.70283 21.6344 4.0013 22.0026 4.0013Z"/>
<path d="M36.6667 4.0013C37.0349 4.0013 37.3333 3.70283 37.3333 3.33464C37.3333 2.96645 37.0349 2.66797 36.6667 2.66797C36.2985 2.66797 36 2.96645 36 3.33464C36 3.70283 36.2985 4.0013 36.6667 4.0013Z"/>
<path d="M36.6667 26.6654C37.0349 26.6654 37.3333 26.3669 37.3333 25.9987C37.3333 25.6305 37.0349 25.332 36.6667 25.332C36.2985 25.332 36 25.6305 36 25.9987C36 26.3669 36.2985 26.6654 36.6667 26.6654Z"/>
<path d="M16.6672 8.67485C16.3978 8.67486 16.1548 8.51279 16.0514 8.26405C14.8126 5.27907 11.8987 3.33341 8.6669 3.33341C5.43511 3.33341 2.52114 5.27907 1.28243 8.26405C1.14094 8.604 0.750647 8.76488 0.410697 8.62338C0.0707475 8.48188 -0.0901315 8.0916 0.0513638 7.75165C1.49702 4.26954 4.89662 2 8.6669 2C12.4372 2 15.8368 4.26954 17.2824 7.75165C17.3679 7.95739 17.3451 8.19223 17.2215 8.37763C17.098 8.56304 16.89 8.67454 16.6672 8.67485Z"/>
<path d="M13.7564 10.0091C13.4872 10.0092 13.2444 9.84742 13.1408 9.59897C12.3906 7.78996 10.6249 6.61068 8.66652 6.61068C6.70813 6.61068 4.94244 7.78996 4.19225 9.59897C4.05041 9.93875 3.65997 10.0992 3.32019 9.95737C2.9804 9.81552 2.81994 9.42509 2.96179 9.0853C3.91923 6.77988 6.17019 5.27734 8.66652 5.27734C11.1629 5.27734 13.4138 6.77988 14.3713 9.0853C14.4569 9.29106 14.4342 9.52601 14.3107 9.71155C14.1873 9.8971 13.9793 10.0087 13.7564 10.0091Z"/>
<path d="M10.8455 11.3397C10.5774 11.3396 10.3354 11.1791 10.231 10.9322C9.96984 10.2981 9.3519 9.88433 8.66619 9.88433C7.98048 9.88433 7.36254 10.2981 7.10139 10.9322C7.0087 11.1516 6.80598 11.3049 6.56958 11.3344C6.33318 11.3639 6.09903 11.265 5.95531 11.075C5.8116 10.885 5.78017 10.6327 5.87286 10.4133C6.34259 9.28547 7.44446 8.55078 8.66619 8.55078C9.88792 8.55078 10.9898 9.28547 11.4595 10.4133C11.5464 10.6192 11.5245 10.8549 11.4011 11.0413C11.2776 11.2276 11.069 11.3394 10.8455 11.3397Z"/>
<path d="M13.7564 10.0091C13.4872 10.0092 13.2444 9.84742 13.1408 9.59897C12.3906 7.78996 10.6249 6.61068 8.66652 6.61068C6.70813 6.61068 4.94244 7.78996 4.19225 9.59897C4.05041 9.93875 3.65997 10.0992 3.32019 9.95737C2.9804 9.81552 2.81994 9.42509 2.96179 9.0853C3.91923 6.77988 6.17019 5.27734 8.66652 5.27734C11.1629 5.27734 13.4138 6.77988 14.3713 9.0853C14.4569 9.29106 14.4342 9.52601 14.3107 9.71155C14.1873 9.8971 13.9793 10.0087 13.7564 10.0091Z"/>
<path d="M10.8455 11.3397C10.5774 11.3396 10.3354 11.1791 10.231 10.9322C9.96984 10.2981 9.3519 9.88433 8.66619 9.88433C7.98048 9.88433 7.36254 10.2981 7.10139 10.9322C7.0087 11.1516 6.80598 11.3049 6.56958 11.3344C6.33318 11.3639 6.09903 11.265 5.95531 11.075C5.8116 10.885 5.78017 10.6327 5.87286 10.4133C6.34259 9.28547 7.44446 8.55078 8.66619 8.55078C9.88792 8.55078 10.9898 9.28547 11.4595 10.4133C11.5464 10.6192 11.5245 10.8549 11.4011 11.0413C11.2776 11.2276 11.069 11.3394 10.8455 11.3397Z"/>
<path d="M8.66667 12.6732C9.03486 12.6732 9.33333 12.3747 9.33333 12.0065C9.33333 11.6383 9.03486 11.3398 8.66667 11.3398C8.29848 11.3398 8 11.6383 8 12.0065C8 12.3747 8.29848 12.6732 8.66667 12.6732Z"/>
<path d="M11.9974 25.9987H10.6641C9.56 25.9975 8.66527 25.1028 8.66406 23.9987V21.332C8.66527 20.228 9.56 19.3332 10.6641 19.332H11.9974C12.3656 19.332 12.6641 19.6305 12.6641 19.9987V25.332C12.6641 25.7002 12.3656 25.9987 11.9974 25.9987ZM10.6641 20.6654C10.2961 20.6658 9.99787 20.964 9.9974 21.332V23.9987C9.99787 24.3667 10.2961 24.6649 10.6641 24.6654H11.3307V20.6654H10.6641Z"/>
<path d="M14.6693 28.003C14.4274 28.0024 14.1903 27.9359 13.9834 27.8106C13.9556 27.7939 13.9291 27.7752 13.904 27.7546L11.5804 25.8506C11.4257 25.7241 11.336 25.5348 11.3359 25.335V20.0017C11.3359 19.8019 11.4255 19.6126 11.5801 19.4861L13.9037 17.5821C13.9287 17.5615 13.9553 17.5428 13.9831 17.5261C14.395 17.2788 14.9081 17.2723 15.3261 17.509C15.7442 17.7456 16.0026 18.1889 16.0026 18.6693V26.6673C16.0007 27.4033 15.4052 27.9998 14.6693 28.003ZM12.6693 25.0193L14.6725 26.6609L14.6693 18.6784L12.6693 20.3174V25.0193Z"/>
<path d="M18.4611 27.9991C18.1466 27.9998 17.8745 27.7806 17.8081 27.4733C17.7417 27.166 17.899 26.854 18.1857 26.7248C19.7088 25.9443 20.6668 24.3769 20.6668 22.6655C20.6668 20.9541 19.7088 19.3867 18.1857 18.6062C17.9686 18.5079 17.8206 18.3014 17.7972 18.0643C17.7738 17.8272 17.8786 17.5957 18.0722 17.4569C18.2658 17.3181 18.5188 17.2931 18.7358 17.3914C20.7359 18.3882 22.0001 20.4307 22.0001 22.6655C22.0001 24.9003 20.7359 26.9427 18.7358 27.9395C18.6495 27.9788 18.5558 27.9991 18.4611 27.9991Z"/>
<path d="M17.3312 25.3296C17.0177 25.3298 16.7464 25.1115 16.6795 24.8052C16.6126 24.4989 16.7682 24.1873 17.0532 24.0568C17.5704 23.7851 17.8944 23.2491 17.8944 22.6649C17.8944 22.0807 17.5704 21.5446 17.0532 21.2729C16.7185 21.1196 16.5714 20.7239 16.7248 20.3892C16.8782 20.0544 17.2738 19.9074 17.6086 20.0607C18.6 20.5498 19.2277 21.5594 19.2277 22.6649C19.2277 23.7704 18.6 24.7799 17.6086 25.269C17.5216 25.309 17.427 25.3297 17.3312 25.3296Z"/>
</svg>
